%TF.GenerationSoftware,KiCad,Pcbnew,8.0.1*%
%TF.CreationDate,2024-05-07T20:14:07+02:00*%
%TF.ProjectId,atx,6174782e-6b69-4636-9164-5f7063625858,rev?*%
%TF.SameCoordinates,Original*%
%TF.FileFunction,Copper,L1,Top*%
%TF.FilePolarity,Positive*%
%FSLAX46Y46*%
G04 Gerber Fmt 4.6, Leading zero omitted, Abs format (unit mm)*
G04 Created by KiCad (PCBNEW 8.0.1) date 2024-05-07 20:14:07*
%MOMM*%
%LPD*%
G01*
G04 APERTURE LIST*
%TA.AperFunction,ComponentPad*%
%ADD10R,1.600000X1.600000*%
%TD*%
%TA.AperFunction,ComponentPad*%
%ADD11O,1.600000X1.600000*%
%TD*%
%TA.AperFunction,ComponentPad*%
%ADD12C,3.000000*%
%TD*%
%TA.AperFunction,ComponentPad*%
%ADD13O,2.700000X3.300000*%
%TD*%
%TA.AperFunction,ComponentPad*%
%ADD14C,1.600000*%
%TD*%
%TA.AperFunction,ComponentPad*%
%ADD15C,3.500000*%
%TD*%
%TA.AperFunction,Conductor*%
%ADD16C,0.200000*%
%TD*%
G04 APERTURE END LIST*
D10*
%TO.P,test switch,1*%
%TO.N,N/C*%
X74500000Y-62200000D03*
D11*
%TO.P,test switch,2*%
X74500000Y-69820000D03*
%TD*%
D12*
%TO.P,power mac g4,1*%
%TO.N,N/C*%
X89500000Y-85500000D03*
%TO.P,power mac g4,2*%
X93700000Y-85500000D03*
D13*
%TO.P,power mac g4,3*%
X97900000Y-85500000D03*
%TO.P,power mac g4,4*%
X102100000Y-85500000D03*
%TO.P,power mac g4,5*%
X106300000Y-85500000D03*
%TO.P,power mac g4,6*%
X110500000Y-85500000D03*
%TO.P,power mac g4,7*%
X114700000Y-85500000D03*
%TO.P,power mac g4,8*%
X118900000Y-85500000D03*
%TO.P,power mac g4,9*%
X123100000Y-85500000D03*
%TO.P,power mac g4,10*%
X127300000Y-85500000D03*
%TO.P,power mac g4,11*%
X131500000Y-85500000D03*
%TO.P,power mac g4,12*%
X89500000Y-91000000D03*
%TO.P,power mac g4,13*%
X93700000Y-91000000D03*
%TO.P,power mac g4,14*%
X97900000Y-91000000D03*
%TO.P,power mac g4,15*%
X102100000Y-91000000D03*
%TO.P,power mac g4,16*%
X106300000Y-91000000D03*
%TO.P,power mac g4,17*%
X110500000Y-91000000D03*
%TO.P,power mac g4,18*%
X114700000Y-91000000D03*
%TO.P,power mac g4,19*%
X118900000Y-91000000D03*
%TO.P,power mac g4,20*%
X123100000Y-91000000D03*
%TO.P,power mac g4,21*%
X127300000Y-91000000D03*
%TO.P,power mac g4,22*%
X131500000Y-91000000D03*
%TD*%
D14*
%TO.P,diode 50v 3A,1*%
%TO.N,N/C*%
X137000000Y-63000000D03*
D11*
%TO.P,diode 50v 3A,2*%
X137000000Y-48000000D03*
%TD*%
D14*
%TO.P,diode 50v 3A,1*%
%TO.N,N/C*%
X143000000Y-48000000D03*
D11*
%TO.P,diode 50v 3A,2*%
X143000000Y-63000000D03*
%TD*%
D13*
%TO.P,atx psu,20*%
%TO.N,N/C*%
X125300000Y-55250000D03*
%TO.P,atx psu,19*%
X121100000Y-55250000D03*
%TO.P,atx psu,18*%
X116900000Y-55250000D03*
%TO.P,atx psu,17*%
X112700000Y-55250000D03*
%TO.P,atx psu,16*%
X108500000Y-55250000D03*
%TO.P,atx psu,15*%
X104300000Y-55250000D03*
%TO.P,atx psu,14*%
X100100000Y-55250000D03*
%TO.P,atx psu,13*%
X95900000Y-55250000D03*
%TO.P,atx psu,12*%
X91700000Y-55250000D03*
%TO.P,atx psu,11*%
X87500000Y-55250000D03*
%TO.P,atx psu,10*%
X125300000Y-49750000D03*
%TO.P,atx psu,9*%
X121100000Y-49750000D03*
%TO.P,atx psu,8*%
X116900000Y-49750000D03*
%TO.P,atx psu,7*%
X112700000Y-49750000D03*
%TO.P,atx psu,6*%
X108500000Y-49750000D03*
%TO.P,atx psu,5*%
X104300000Y-49750000D03*
%TO.P,atx psu,4*%
X100100000Y-49750000D03*
%TO.P,atx psu,3*%
X95900000Y-49750000D03*
%TO.P,atx psu,2*%
X91700000Y-49750000D03*
D15*
%TO.P,atx psu,1*%
X87500000Y-49750000D03*
%TD*%
D16*
%TO.N,*%
X87500000Y-49500000D02*
X87500000Y-83500000D01*
X91700000Y-49500000D02*
X91700000Y-83500000D01*
%TD*%
M02*
