%TF.GenerationSoftware,KiCad,Pcbnew,8.0.1*%
%TF.CreationDate,2024-05-07T20:14:08+02:00*%
%TF.ProjectId,atx,6174782e-6b69-4636-9164-5f7063625858,rev?*%
%TF.SameCoordinates,Original*%
%TF.FileFunction,Other,User*%
%FSLAX46Y46*%
G04 Gerber Fmt 4.6, Leading zero omitted, Abs format (unit mm)*
G04 Created by KiCad (PCBNEW 8.0.1) date 2024-05-07 20:14:08*
%MOMM*%
%LPD*%
G01*
G04 APERTURE LIST*
%ADD10C,0.050000*%
G04 APERTURE END LIST*
D10*
%TO.C,test switch*%
X76900000Y-61100000D02*
X72100000Y-61100000D01*
X72100000Y-61100000D02*
X72100000Y-70900000D01*
X76900000Y-70900000D02*
X76900000Y-61100000D01*
X72100000Y-70900000D02*
X76900000Y-70900000D01*
%TO.C,power mac g4*%
X86300000Y-82750000D02*
X86300000Y-94750000D01*
X86300000Y-94750000D02*
X134700000Y-94750000D01*
X134700000Y-82750000D02*
X86300000Y-82750000D01*
X134700000Y-94750000D02*
X134700000Y-82750000D01*
%TO.C,diode 50v 3A*%
X135200000Y-64050000D02*
X138800000Y-64050000D01*
X138800000Y-64050000D02*
X138800000Y-46950000D01*
X135200000Y-46950000D02*
X135200000Y-64050000D01*
X138800000Y-46950000D02*
X135200000Y-46950000D01*
X141200000Y-46950000D02*
X141200000Y-64050000D01*
X141200000Y-64050000D02*
X144800000Y-64050000D01*
X144800000Y-46950000D02*
X141200000Y-46950000D01*
X144800000Y-64050000D02*
X144800000Y-46950000D01*
%TO.C,atx psu*%
X128500000Y-59000000D02*
X128500000Y-47000000D01*
X128500000Y-47000000D02*
X84300000Y-47000000D01*
X84300000Y-59000000D02*
X128500000Y-59000000D01*
X84300000Y-47000000D02*
X84300000Y-59000000D01*
%TD*%
M02*
