%TF.GenerationSoftware,KiCad,Pcbnew,8.0.1*%
%TF.CreationDate,2024-05-07T20:14:08+02:00*%
%TF.ProjectId,atx,6174782e-6b69-4636-9164-5f7063625858,rev?*%
%TF.SameCoordinates,Original*%
%TF.FileFunction,AssemblyDrawing,Top*%
%FSLAX46Y46*%
G04 Gerber Fmt 4.6, Leading zero omitted, Abs format (unit mm)*
G04 Created by KiCad (PCBNEW 8.0.1) date 2024-05-07 20:14:08*
%MOMM*%
%LPD*%
G01*
G04 APERTURE LIST*
%ADD10C,0.090000*%
%ADD11C,0.150000*%
%ADD12C,0.100000*%
G04 APERTURE END LIST*
D10*
X72085714Y-68462891D02*
X72314286Y-68462891D01*
X72171429Y-68262891D02*
X72171429Y-68777177D01*
X72171429Y-68777177D02*
X72200000Y-68834320D01*
X72200000Y-68834320D02*
X72257143Y-68862891D01*
X72257143Y-68862891D02*
X72314286Y-68862891D01*
X72742857Y-68834320D02*
X72685714Y-68862891D01*
X72685714Y-68862891D02*
X72571429Y-68862891D01*
X72571429Y-68862891D02*
X72514286Y-68834320D01*
X72514286Y-68834320D02*
X72485714Y-68777177D01*
X72485714Y-68777177D02*
X72485714Y-68548605D01*
X72485714Y-68548605D02*
X72514286Y-68491462D01*
X72514286Y-68491462D02*
X72571429Y-68462891D01*
X72571429Y-68462891D02*
X72685714Y-68462891D01*
X72685714Y-68462891D02*
X72742857Y-68491462D01*
X72742857Y-68491462D02*
X72771429Y-68548605D01*
X72771429Y-68548605D02*
X72771429Y-68605748D01*
X72771429Y-68605748D02*
X72485714Y-68662891D01*
X73000000Y-68834320D02*
X73057143Y-68862891D01*
X73057143Y-68862891D02*
X73171429Y-68862891D01*
X73171429Y-68862891D02*
X73228572Y-68834320D01*
X73228572Y-68834320D02*
X73257143Y-68777177D01*
X73257143Y-68777177D02*
X73257143Y-68748605D01*
X73257143Y-68748605D02*
X73228572Y-68691462D01*
X73228572Y-68691462D02*
X73171429Y-68662891D01*
X73171429Y-68662891D02*
X73085715Y-68662891D01*
X73085715Y-68662891D02*
X73028572Y-68634320D01*
X73028572Y-68634320D02*
X73000000Y-68577177D01*
X73000000Y-68577177D02*
X73000000Y-68548605D01*
X73000000Y-68548605D02*
X73028572Y-68491462D01*
X73028572Y-68491462D02*
X73085715Y-68462891D01*
X73085715Y-68462891D02*
X73171429Y-68462891D01*
X73171429Y-68462891D02*
X73228572Y-68491462D01*
X73428571Y-68462891D02*
X73657143Y-68462891D01*
X73514286Y-68262891D02*
X73514286Y-68777177D01*
X73514286Y-68777177D02*
X73542857Y-68834320D01*
X73542857Y-68834320D02*
X73600000Y-68862891D01*
X73600000Y-68862891D02*
X73657143Y-68862891D01*
X74285714Y-68834320D02*
X74342857Y-68862891D01*
X74342857Y-68862891D02*
X74457143Y-68862891D01*
X74457143Y-68862891D02*
X74514286Y-68834320D01*
X74514286Y-68834320D02*
X74542857Y-68777177D01*
X74542857Y-68777177D02*
X74542857Y-68748605D01*
X74542857Y-68748605D02*
X74514286Y-68691462D01*
X74514286Y-68691462D02*
X74457143Y-68662891D01*
X74457143Y-68662891D02*
X74371429Y-68662891D01*
X74371429Y-68662891D02*
X74314286Y-68634320D01*
X74314286Y-68634320D02*
X74285714Y-68577177D01*
X74285714Y-68577177D02*
X74285714Y-68548605D01*
X74285714Y-68548605D02*
X74314286Y-68491462D01*
X74314286Y-68491462D02*
X74371429Y-68462891D01*
X74371429Y-68462891D02*
X74457143Y-68462891D01*
X74457143Y-68462891D02*
X74514286Y-68491462D01*
X74742857Y-68462891D02*
X74857143Y-68862891D01*
X74857143Y-68862891D02*
X74971428Y-68577177D01*
X74971428Y-68577177D02*
X75085714Y-68862891D01*
X75085714Y-68862891D02*
X75200000Y-68462891D01*
X75428571Y-68862891D02*
X75428571Y-68462891D01*
X75428571Y-68262891D02*
X75399999Y-68291462D01*
X75399999Y-68291462D02*
X75428571Y-68320034D01*
X75428571Y-68320034D02*
X75457142Y-68291462D01*
X75457142Y-68291462D02*
X75428571Y-68262891D01*
X75428571Y-68262891D02*
X75428571Y-68320034D01*
X75628570Y-68462891D02*
X75857142Y-68462891D01*
X75714285Y-68262891D02*
X75714285Y-68777177D01*
X75714285Y-68777177D02*
X75742856Y-68834320D01*
X75742856Y-68834320D02*
X75799999Y-68862891D01*
X75799999Y-68862891D02*
X75857142Y-68862891D01*
X76314285Y-68834320D02*
X76257142Y-68862891D01*
X76257142Y-68862891D02*
X76142856Y-68862891D01*
X76142856Y-68862891D02*
X76085713Y-68834320D01*
X76085713Y-68834320D02*
X76057142Y-68805748D01*
X76057142Y-68805748D02*
X76028570Y-68748605D01*
X76028570Y-68748605D02*
X76028570Y-68577177D01*
X76028570Y-68577177D02*
X76057142Y-68520034D01*
X76057142Y-68520034D02*
X76085713Y-68491462D01*
X76085713Y-68491462D02*
X76142856Y-68462891D01*
X76142856Y-68462891D02*
X76257142Y-68462891D01*
X76257142Y-68462891D02*
X76314285Y-68491462D01*
X76571428Y-68862891D02*
X76571428Y-68262891D01*
X76828571Y-68862891D02*
X76828571Y-68548605D01*
X76828571Y-68548605D02*
X76799999Y-68491462D01*
X76799999Y-68491462D02*
X76742856Y-68462891D01*
X76742856Y-68462891D02*
X76657142Y-68462891D01*
X76657142Y-68462891D02*
X76599999Y-68491462D01*
X76599999Y-68491462D02*
X76571428Y-68520034D01*
X76115391Y-66999285D02*
X76086820Y-67056428D01*
X76086820Y-67056428D02*
X76058248Y-67084999D01*
X76058248Y-67084999D02*
X76001105Y-67113571D01*
X76001105Y-67113571D02*
X75829677Y-67113571D01*
X75829677Y-67113571D02*
X75772534Y-67084999D01*
X75772534Y-67084999D02*
X75743962Y-67056428D01*
X75743962Y-67056428D02*
X75715391Y-66999285D01*
X75715391Y-66999285D02*
X75715391Y-66913571D01*
X75715391Y-66913571D02*
X75743962Y-66856428D01*
X75743962Y-66856428D02*
X75772534Y-66827857D01*
X75772534Y-66827857D02*
X75829677Y-66799285D01*
X75829677Y-66799285D02*
X76001105Y-66799285D01*
X76001105Y-66799285D02*
X76058248Y-66827857D01*
X76058248Y-66827857D02*
X76086820Y-66856428D01*
X76086820Y-66856428D02*
X76115391Y-66913571D01*
X76115391Y-66913571D02*
X76115391Y-66999285D01*
X75715391Y-66542142D02*
X76115391Y-66542142D01*
X75772534Y-66542142D02*
X75743962Y-66513571D01*
X75743962Y-66513571D02*
X75715391Y-66456428D01*
X75715391Y-66456428D02*
X75715391Y-66370714D01*
X75715391Y-66370714D02*
X75743962Y-66313571D01*
X75743962Y-66313571D02*
X75801105Y-66285000D01*
X75801105Y-66285000D02*
X76115391Y-66285000D01*
D11*
X90499999Y-95904819D02*
X90499999Y-94904819D01*
X90499999Y-94904819D02*
X90833332Y-95619104D01*
X90833332Y-95619104D02*
X91166665Y-94904819D01*
X91166665Y-94904819D02*
X91166665Y-95904819D01*
X91785713Y-95904819D02*
X91690475Y-95857200D01*
X91690475Y-95857200D02*
X91642856Y-95809580D01*
X91642856Y-95809580D02*
X91595237Y-95714342D01*
X91595237Y-95714342D02*
X91595237Y-95428628D01*
X91595237Y-95428628D02*
X91642856Y-95333390D01*
X91642856Y-95333390D02*
X91690475Y-95285771D01*
X91690475Y-95285771D02*
X91785713Y-95238152D01*
X91785713Y-95238152D02*
X91928570Y-95238152D01*
X91928570Y-95238152D02*
X92023808Y-95285771D01*
X92023808Y-95285771D02*
X92071427Y-95333390D01*
X92071427Y-95333390D02*
X92119046Y-95428628D01*
X92119046Y-95428628D02*
X92119046Y-95714342D01*
X92119046Y-95714342D02*
X92071427Y-95809580D01*
X92071427Y-95809580D02*
X92023808Y-95857200D01*
X92023808Y-95857200D02*
X91928570Y-95904819D01*
X91928570Y-95904819D02*
X91785713Y-95904819D01*
X92690475Y-95904819D02*
X92595237Y-95857200D01*
X92595237Y-95857200D02*
X92547618Y-95761961D01*
X92547618Y-95761961D02*
X92547618Y-94904819D01*
X93452380Y-95857200D02*
X93357142Y-95904819D01*
X93357142Y-95904819D02*
X93166666Y-95904819D01*
X93166666Y-95904819D02*
X93071428Y-95857200D01*
X93071428Y-95857200D02*
X93023809Y-95761961D01*
X93023809Y-95761961D02*
X93023809Y-95381009D01*
X93023809Y-95381009D02*
X93071428Y-95285771D01*
X93071428Y-95285771D02*
X93166666Y-95238152D01*
X93166666Y-95238152D02*
X93357142Y-95238152D01*
X93357142Y-95238152D02*
X93452380Y-95285771D01*
X93452380Y-95285771D02*
X93499999Y-95381009D01*
X93499999Y-95381009D02*
X93499999Y-95476247D01*
X93499999Y-95476247D02*
X93023809Y-95571485D01*
X93833333Y-95904819D02*
X94357142Y-95238152D01*
X93833333Y-95238152D02*
X94357142Y-95904819D01*
X94500000Y-96000057D02*
X95261904Y-96000057D01*
X95500000Y-95904819D02*
X95500000Y-94904819D01*
X95500000Y-94904819D02*
X95833333Y-95619104D01*
X95833333Y-95619104D02*
X96166666Y-94904819D01*
X96166666Y-94904819D02*
X96166666Y-95904819D01*
X96642857Y-95904819D02*
X96642857Y-95238152D01*
X96642857Y-94904819D02*
X96595238Y-94952438D01*
X96595238Y-94952438D02*
X96642857Y-95000057D01*
X96642857Y-95000057D02*
X96690476Y-94952438D01*
X96690476Y-94952438D02*
X96642857Y-94904819D01*
X96642857Y-94904819D02*
X96642857Y-95000057D01*
X97119047Y-95238152D02*
X97119047Y-95904819D01*
X97119047Y-95333390D02*
X97166666Y-95285771D01*
X97166666Y-95285771D02*
X97261904Y-95238152D01*
X97261904Y-95238152D02*
X97404761Y-95238152D01*
X97404761Y-95238152D02*
X97499999Y-95285771D01*
X97499999Y-95285771D02*
X97547618Y-95381009D01*
X97547618Y-95381009D02*
X97547618Y-95904819D01*
X98023809Y-95904819D02*
X98023809Y-95238152D01*
X98023809Y-94904819D02*
X97976190Y-94952438D01*
X97976190Y-94952438D02*
X98023809Y-95000057D01*
X98023809Y-95000057D02*
X98071428Y-94952438D01*
X98071428Y-94952438D02*
X98023809Y-94904819D01*
X98023809Y-94904819D02*
X98023809Y-95000057D01*
X98499999Y-95523866D02*
X99261904Y-95523866D01*
X100071427Y-95381009D02*
X99738094Y-95381009D01*
X99738094Y-95904819D02*
X99738094Y-94904819D01*
X99738094Y-94904819D02*
X100214284Y-94904819D01*
X100595237Y-95904819D02*
X100595237Y-95238152D01*
X100595237Y-94904819D02*
X100547618Y-94952438D01*
X100547618Y-94952438D02*
X100595237Y-95000057D01*
X100595237Y-95000057D02*
X100642856Y-94952438D01*
X100642856Y-94952438D02*
X100595237Y-94904819D01*
X100595237Y-94904819D02*
X100595237Y-95000057D01*
X100928570Y-95238152D02*
X101309522Y-95238152D01*
X101071427Y-94904819D02*
X101071427Y-95761961D01*
X101071427Y-95761961D02*
X101119046Y-95857200D01*
X101119046Y-95857200D02*
X101214284Y-95904819D01*
X101214284Y-95904819D02*
X101309522Y-95904819D01*
X101404761Y-96000057D02*
X102166665Y-96000057D01*
X102690475Y-94904819D02*
X102690475Y-95619104D01*
X102690475Y-95619104D02*
X102642856Y-95761961D01*
X102642856Y-95761961D02*
X102547618Y-95857200D01*
X102547618Y-95857200D02*
X102404761Y-95904819D01*
X102404761Y-95904819D02*
X102309523Y-95904819D01*
X103166666Y-95904819D02*
X103166666Y-95238152D01*
X103166666Y-95428628D02*
X103214285Y-95333390D01*
X103214285Y-95333390D02*
X103261904Y-95285771D01*
X103261904Y-95285771D02*
X103357142Y-95238152D01*
X103357142Y-95238152D02*
X103452380Y-95238152D01*
X103547619Y-96000057D02*
X104309523Y-96000057D01*
X105023809Y-94904819D02*
X104547619Y-94904819D01*
X104547619Y-94904819D02*
X104500000Y-95381009D01*
X104500000Y-95381009D02*
X104547619Y-95333390D01*
X104547619Y-95333390D02*
X104642857Y-95285771D01*
X104642857Y-95285771D02*
X104880952Y-95285771D01*
X104880952Y-95285771D02*
X104976190Y-95333390D01*
X104976190Y-95333390D02*
X105023809Y-95381009D01*
X105023809Y-95381009D02*
X105071428Y-95476247D01*
X105071428Y-95476247D02*
X105071428Y-95714342D01*
X105071428Y-95714342D02*
X105023809Y-95809580D01*
X105023809Y-95809580D02*
X104976190Y-95857200D01*
X104976190Y-95857200D02*
X104880952Y-95904819D01*
X104880952Y-95904819D02*
X104642857Y-95904819D01*
X104642857Y-95904819D02*
X104547619Y-95857200D01*
X104547619Y-95857200D02*
X104500000Y-95809580D01*
X105976190Y-94904819D02*
X105500000Y-94904819D01*
X105500000Y-94904819D02*
X105452381Y-95381009D01*
X105452381Y-95381009D02*
X105500000Y-95333390D01*
X105500000Y-95333390D02*
X105595238Y-95285771D01*
X105595238Y-95285771D02*
X105833333Y-95285771D01*
X105833333Y-95285771D02*
X105928571Y-95333390D01*
X105928571Y-95333390D02*
X105976190Y-95381009D01*
X105976190Y-95381009D02*
X106023809Y-95476247D01*
X106023809Y-95476247D02*
X106023809Y-95714342D01*
X106023809Y-95714342D02*
X105976190Y-95809580D01*
X105976190Y-95809580D02*
X105928571Y-95857200D01*
X105928571Y-95857200D02*
X105833333Y-95904819D01*
X105833333Y-95904819D02*
X105595238Y-95904819D01*
X105595238Y-95904819D02*
X105500000Y-95857200D01*
X105500000Y-95857200D02*
X105452381Y-95809580D01*
X106880952Y-94904819D02*
X106690476Y-94904819D01*
X106690476Y-94904819D02*
X106595238Y-94952438D01*
X106595238Y-94952438D02*
X106547619Y-95000057D01*
X106547619Y-95000057D02*
X106452381Y-95142914D01*
X106452381Y-95142914D02*
X106404762Y-95333390D01*
X106404762Y-95333390D02*
X106404762Y-95714342D01*
X106404762Y-95714342D02*
X106452381Y-95809580D01*
X106452381Y-95809580D02*
X106500000Y-95857200D01*
X106500000Y-95857200D02*
X106595238Y-95904819D01*
X106595238Y-95904819D02*
X106785714Y-95904819D01*
X106785714Y-95904819D02*
X106880952Y-95857200D01*
X106880952Y-95857200D02*
X106928571Y-95809580D01*
X106928571Y-95809580D02*
X106976190Y-95714342D01*
X106976190Y-95714342D02*
X106976190Y-95476247D01*
X106976190Y-95476247D02*
X106928571Y-95381009D01*
X106928571Y-95381009D02*
X106880952Y-95333390D01*
X106880952Y-95333390D02*
X106785714Y-95285771D01*
X106785714Y-95285771D02*
X106595238Y-95285771D01*
X106595238Y-95285771D02*
X106500000Y-95333390D01*
X106500000Y-95333390D02*
X106452381Y-95381009D01*
X106452381Y-95381009D02*
X106404762Y-95476247D01*
X107833333Y-94904819D02*
X107642857Y-94904819D01*
X107642857Y-94904819D02*
X107547619Y-94952438D01*
X107547619Y-94952438D02*
X107500000Y-95000057D01*
X107500000Y-95000057D02*
X107404762Y-95142914D01*
X107404762Y-95142914D02*
X107357143Y-95333390D01*
X107357143Y-95333390D02*
X107357143Y-95714342D01*
X107357143Y-95714342D02*
X107404762Y-95809580D01*
X107404762Y-95809580D02*
X107452381Y-95857200D01*
X107452381Y-95857200D02*
X107547619Y-95904819D01*
X107547619Y-95904819D02*
X107738095Y-95904819D01*
X107738095Y-95904819D02*
X107833333Y-95857200D01*
X107833333Y-95857200D02*
X107880952Y-95809580D01*
X107880952Y-95809580D02*
X107928571Y-95714342D01*
X107928571Y-95714342D02*
X107928571Y-95476247D01*
X107928571Y-95476247D02*
X107880952Y-95381009D01*
X107880952Y-95381009D02*
X107833333Y-95333390D01*
X107833333Y-95333390D02*
X107738095Y-95285771D01*
X107738095Y-95285771D02*
X107547619Y-95285771D01*
X107547619Y-95285771D02*
X107452381Y-95333390D01*
X107452381Y-95333390D02*
X107404762Y-95381009D01*
X107404762Y-95381009D02*
X107357143Y-95476247D01*
X108357143Y-95523866D02*
X109119048Y-95523866D01*
X109547619Y-95000057D02*
X109595238Y-94952438D01*
X109595238Y-94952438D02*
X109690476Y-94904819D01*
X109690476Y-94904819D02*
X109928571Y-94904819D01*
X109928571Y-94904819D02*
X110023809Y-94952438D01*
X110023809Y-94952438D02*
X110071428Y-95000057D01*
X110071428Y-95000057D02*
X110119047Y-95095295D01*
X110119047Y-95095295D02*
X110119047Y-95190533D01*
X110119047Y-95190533D02*
X110071428Y-95333390D01*
X110071428Y-95333390D02*
X109500000Y-95904819D01*
X109500000Y-95904819D02*
X110119047Y-95904819D01*
X110500000Y-95000057D02*
X110547619Y-94952438D01*
X110547619Y-94952438D02*
X110642857Y-94904819D01*
X110642857Y-94904819D02*
X110880952Y-94904819D01*
X110880952Y-94904819D02*
X110976190Y-94952438D01*
X110976190Y-94952438D02*
X111023809Y-95000057D01*
X111023809Y-95000057D02*
X111071428Y-95095295D01*
X111071428Y-95095295D02*
X111071428Y-95190533D01*
X111071428Y-95190533D02*
X111023809Y-95333390D01*
X111023809Y-95333390D02*
X110452381Y-95904819D01*
X110452381Y-95904819D02*
X111071428Y-95904819D01*
X111452381Y-95619104D02*
X111928571Y-95619104D01*
X111357143Y-95904819D02*
X111690476Y-94904819D01*
X111690476Y-94904819D02*
X112023809Y-95904819D01*
X112119048Y-96000057D02*
X112880952Y-96000057D01*
X113071429Y-95000057D02*
X113119048Y-94952438D01*
X113119048Y-94952438D02*
X113214286Y-94904819D01*
X113214286Y-94904819D02*
X113452381Y-94904819D01*
X113452381Y-94904819D02*
X113547619Y-94952438D01*
X113547619Y-94952438D02*
X113595238Y-95000057D01*
X113595238Y-95000057D02*
X113642857Y-95095295D01*
X113642857Y-95095295D02*
X113642857Y-95190533D01*
X113642857Y-95190533D02*
X113595238Y-95333390D01*
X113595238Y-95333390D02*
X113023810Y-95904819D01*
X113023810Y-95904819D02*
X113642857Y-95904819D01*
X113976191Y-95904819D02*
X114500000Y-95238152D01*
X113976191Y-95238152D02*
X114500000Y-95904819D01*
X115404762Y-95904819D02*
X114833334Y-95904819D01*
X115119048Y-95904819D02*
X115119048Y-94904819D01*
X115119048Y-94904819D02*
X115023810Y-95047676D01*
X115023810Y-95047676D02*
X114928572Y-95142914D01*
X114928572Y-95142914D02*
X114833334Y-95190533D01*
X116357143Y-95904819D02*
X115785715Y-95904819D01*
X116071429Y-95904819D02*
X116071429Y-94904819D01*
X116071429Y-94904819D02*
X115976191Y-95047676D01*
X115976191Y-95047676D02*
X115880953Y-95142914D01*
X115880953Y-95142914D02*
X115785715Y-95190533D01*
X116547620Y-96000057D02*
X117309524Y-96000057D01*
X117547620Y-95904819D02*
X117547620Y-94904819D01*
X117547620Y-94904819D02*
X117928572Y-94904819D01*
X117928572Y-94904819D02*
X118023810Y-94952438D01*
X118023810Y-94952438D02*
X118071429Y-95000057D01*
X118071429Y-95000057D02*
X118119048Y-95095295D01*
X118119048Y-95095295D02*
X118119048Y-95238152D01*
X118119048Y-95238152D02*
X118071429Y-95333390D01*
X118071429Y-95333390D02*
X118023810Y-95381009D01*
X118023810Y-95381009D02*
X117928572Y-95428628D01*
X117928572Y-95428628D02*
X117547620Y-95428628D01*
X118976191Y-95238152D02*
X118976191Y-95904819D01*
X118738096Y-94857200D02*
X118500001Y-95571485D01*
X118500001Y-95571485D02*
X119119048Y-95571485D01*
X119500001Y-95809580D02*
X119547620Y-95857200D01*
X119547620Y-95857200D02*
X119500001Y-95904819D01*
X119500001Y-95904819D02*
X119452382Y-95857200D01*
X119452382Y-95857200D02*
X119500001Y-95809580D01*
X119500001Y-95809580D02*
X119500001Y-95904819D01*
X119928572Y-95000057D02*
X119976191Y-94952438D01*
X119976191Y-94952438D02*
X120071429Y-94904819D01*
X120071429Y-94904819D02*
X120309524Y-94904819D01*
X120309524Y-94904819D02*
X120404762Y-94952438D01*
X120404762Y-94952438D02*
X120452381Y-95000057D01*
X120452381Y-95000057D02*
X120500000Y-95095295D01*
X120500000Y-95095295D02*
X120500000Y-95190533D01*
X120500000Y-95190533D02*
X120452381Y-95333390D01*
X120452381Y-95333390D02*
X119880953Y-95904819D01*
X119880953Y-95904819D02*
X120500000Y-95904819D01*
X121119048Y-94904819D02*
X121214286Y-94904819D01*
X121214286Y-94904819D02*
X121309524Y-94952438D01*
X121309524Y-94952438D02*
X121357143Y-95000057D01*
X121357143Y-95000057D02*
X121404762Y-95095295D01*
X121404762Y-95095295D02*
X121452381Y-95285771D01*
X121452381Y-95285771D02*
X121452381Y-95523866D01*
X121452381Y-95523866D02*
X121404762Y-95714342D01*
X121404762Y-95714342D02*
X121357143Y-95809580D01*
X121357143Y-95809580D02*
X121309524Y-95857200D01*
X121309524Y-95857200D02*
X121214286Y-95904819D01*
X121214286Y-95904819D02*
X121119048Y-95904819D01*
X121119048Y-95904819D02*
X121023810Y-95857200D01*
X121023810Y-95857200D02*
X120976191Y-95809580D01*
X120976191Y-95809580D02*
X120928572Y-95714342D01*
X120928572Y-95714342D02*
X120880953Y-95523866D01*
X120880953Y-95523866D02*
X120880953Y-95285771D01*
X120880953Y-95285771D02*
X120928572Y-95095295D01*
X120928572Y-95095295D02*
X120976191Y-95000057D01*
X120976191Y-95000057D02*
X121023810Y-94952438D01*
X121023810Y-94952438D02*
X121119048Y-94904819D01*
X121880953Y-95904819D02*
X121880953Y-95238152D01*
X121880953Y-95333390D02*
X121928572Y-95285771D01*
X121928572Y-95285771D02*
X122023810Y-95238152D01*
X122023810Y-95238152D02*
X122166667Y-95238152D01*
X122166667Y-95238152D02*
X122261905Y-95285771D01*
X122261905Y-95285771D02*
X122309524Y-95381009D01*
X122309524Y-95381009D02*
X122309524Y-95904819D01*
X122309524Y-95381009D02*
X122357143Y-95285771D01*
X122357143Y-95285771D02*
X122452381Y-95238152D01*
X122452381Y-95238152D02*
X122595238Y-95238152D01*
X122595238Y-95238152D02*
X122690477Y-95285771D01*
X122690477Y-95285771D02*
X122738096Y-95381009D01*
X122738096Y-95381009D02*
X122738096Y-95904819D01*
X123214286Y-95904819D02*
X123214286Y-95238152D01*
X123214286Y-95333390D02*
X123261905Y-95285771D01*
X123261905Y-95285771D02*
X123357143Y-95238152D01*
X123357143Y-95238152D02*
X123500000Y-95238152D01*
X123500000Y-95238152D02*
X123595238Y-95285771D01*
X123595238Y-95285771D02*
X123642857Y-95381009D01*
X123642857Y-95381009D02*
X123642857Y-95904819D01*
X123642857Y-95381009D02*
X123690476Y-95285771D01*
X123690476Y-95285771D02*
X123785714Y-95238152D01*
X123785714Y-95238152D02*
X123928571Y-95238152D01*
X123928571Y-95238152D02*
X124023810Y-95285771D01*
X124023810Y-95285771D02*
X124071429Y-95381009D01*
X124071429Y-95381009D02*
X124071429Y-95904819D01*
X124309524Y-96000057D02*
X125071428Y-96000057D01*
X125166667Y-94904819D02*
X125500000Y-95904819D01*
X125500000Y-95904819D02*
X125833333Y-94904819D01*
X126547619Y-95857200D02*
X126452381Y-95904819D01*
X126452381Y-95904819D02*
X126261905Y-95904819D01*
X126261905Y-95904819D02*
X126166667Y-95857200D01*
X126166667Y-95857200D02*
X126119048Y-95761961D01*
X126119048Y-95761961D02*
X126119048Y-95381009D01*
X126119048Y-95381009D02*
X126166667Y-95285771D01*
X126166667Y-95285771D02*
X126261905Y-95238152D01*
X126261905Y-95238152D02*
X126452381Y-95238152D01*
X126452381Y-95238152D02*
X126547619Y-95285771D01*
X126547619Y-95285771D02*
X126595238Y-95381009D01*
X126595238Y-95381009D02*
X126595238Y-95476247D01*
X126595238Y-95476247D02*
X126119048Y-95571485D01*
X127023810Y-95904819D02*
X127023810Y-95238152D01*
X127023810Y-95428628D02*
X127071429Y-95333390D01*
X127071429Y-95333390D02*
X127119048Y-95285771D01*
X127119048Y-95285771D02*
X127214286Y-95238152D01*
X127214286Y-95238152D02*
X127309524Y-95238152D01*
X127500001Y-95238152D02*
X127880953Y-95238152D01*
X127642858Y-94904819D02*
X127642858Y-95761961D01*
X127642858Y-95761961D02*
X127690477Y-95857200D01*
X127690477Y-95857200D02*
X127785715Y-95904819D01*
X127785715Y-95904819D02*
X127880953Y-95904819D01*
X128214287Y-95904819D02*
X128214287Y-95238152D01*
X128214287Y-94904819D02*
X128166668Y-94952438D01*
X128166668Y-94952438D02*
X128214287Y-95000057D01*
X128214287Y-95000057D02*
X128261906Y-94952438D01*
X128261906Y-94952438D02*
X128214287Y-94904819D01*
X128214287Y-94904819D02*
X128214287Y-95000057D01*
X129119048Y-95857200D02*
X129023810Y-95904819D01*
X129023810Y-95904819D02*
X128833334Y-95904819D01*
X128833334Y-95904819D02*
X128738096Y-95857200D01*
X128738096Y-95857200D02*
X128690477Y-95809580D01*
X128690477Y-95809580D02*
X128642858Y-95714342D01*
X128642858Y-95714342D02*
X128642858Y-95428628D01*
X128642858Y-95428628D02*
X128690477Y-95333390D01*
X128690477Y-95333390D02*
X128738096Y-95285771D01*
X128738096Y-95285771D02*
X128833334Y-95238152D01*
X128833334Y-95238152D02*
X129023810Y-95238152D01*
X129023810Y-95238152D02*
X129119048Y-95285771D01*
X129976191Y-95904819D02*
X129976191Y-95381009D01*
X129976191Y-95381009D02*
X129928572Y-95285771D01*
X129928572Y-95285771D02*
X129833334Y-95238152D01*
X129833334Y-95238152D02*
X129642858Y-95238152D01*
X129642858Y-95238152D02*
X129547620Y-95285771D01*
X129976191Y-95857200D02*
X129880953Y-95904819D01*
X129880953Y-95904819D02*
X129642858Y-95904819D01*
X129642858Y-95904819D02*
X129547620Y-95857200D01*
X129547620Y-95857200D02*
X129500001Y-95761961D01*
X129500001Y-95761961D02*
X129500001Y-95666723D01*
X129500001Y-95666723D02*
X129547620Y-95571485D01*
X129547620Y-95571485D02*
X129642858Y-95523866D01*
X129642858Y-95523866D02*
X129880953Y-95523866D01*
X129880953Y-95523866D02*
X129976191Y-95476247D01*
X130595239Y-95904819D02*
X130500001Y-95857200D01*
X130500001Y-95857200D02*
X130452382Y-95761961D01*
X130452382Y-95761961D02*
X130452382Y-94904819D01*
X105333333Y-83738152D02*
X105333333Y-84738152D01*
X105333333Y-83785771D02*
X105428571Y-83738152D01*
X105428571Y-83738152D02*
X105619047Y-83738152D01*
X105619047Y-83738152D02*
X105714285Y-83785771D01*
X105714285Y-83785771D02*
X105761904Y-83833390D01*
X105761904Y-83833390D02*
X105809523Y-83928628D01*
X105809523Y-83928628D02*
X105809523Y-84214342D01*
X105809523Y-84214342D02*
X105761904Y-84309580D01*
X105761904Y-84309580D02*
X105714285Y-84357200D01*
X105714285Y-84357200D02*
X105619047Y-84404819D01*
X105619047Y-84404819D02*
X105428571Y-84404819D01*
X105428571Y-84404819D02*
X105333333Y-84357200D01*
X106380952Y-84404819D02*
X106285714Y-84357200D01*
X106285714Y-84357200D02*
X106238095Y-84309580D01*
X106238095Y-84309580D02*
X106190476Y-84214342D01*
X106190476Y-84214342D02*
X106190476Y-83928628D01*
X106190476Y-83928628D02*
X106238095Y-83833390D01*
X106238095Y-83833390D02*
X106285714Y-83785771D01*
X106285714Y-83785771D02*
X106380952Y-83738152D01*
X106380952Y-83738152D02*
X106523809Y-83738152D01*
X106523809Y-83738152D02*
X106619047Y-83785771D01*
X106619047Y-83785771D02*
X106666666Y-83833390D01*
X106666666Y-83833390D02*
X106714285Y-83928628D01*
X106714285Y-83928628D02*
X106714285Y-84214342D01*
X106714285Y-84214342D02*
X106666666Y-84309580D01*
X106666666Y-84309580D02*
X106619047Y-84357200D01*
X106619047Y-84357200D02*
X106523809Y-84404819D01*
X106523809Y-84404819D02*
X106380952Y-84404819D01*
X107047619Y-83738152D02*
X107238095Y-84404819D01*
X107238095Y-84404819D02*
X107428571Y-83928628D01*
X107428571Y-83928628D02*
X107619047Y-84404819D01*
X107619047Y-84404819D02*
X107809523Y-83738152D01*
X108571428Y-84357200D02*
X108476190Y-84404819D01*
X108476190Y-84404819D02*
X108285714Y-84404819D01*
X108285714Y-84404819D02*
X108190476Y-84357200D01*
X108190476Y-84357200D02*
X108142857Y-84261961D01*
X108142857Y-84261961D02*
X108142857Y-83881009D01*
X108142857Y-83881009D02*
X108190476Y-83785771D01*
X108190476Y-83785771D02*
X108285714Y-83738152D01*
X108285714Y-83738152D02*
X108476190Y-83738152D01*
X108476190Y-83738152D02*
X108571428Y-83785771D01*
X108571428Y-83785771D02*
X108619047Y-83881009D01*
X108619047Y-83881009D02*
X108619047Y-83976247D01*
X108619047Y-83976247D02*
X108142857Y-84071485D01*
X109047619Y-84404819D02*
X109047619Y-83738152D01*
X109047619Y-83928628D02*
X109095238Y-83833390D01*
X109095238Y-83833390D02*
X109142857Y-83785771D01*
X109142857Y-83785771D02*
X109238095Y-83738152D01*
X109238095Y-83738152D02*
X109333333Y-83738152D01*
X110428572Y-84404819D02*
X110428572Y-83738152D01*
X110428572Y-83833390D02*
X110476191Y-83785771D01*
X110476191Y-83785771D02*
X110571429Y-83738152D01*
X110571429Y-83738152D02*
X110714286Y-83738152D01*
X110714286Y-83738152D02*
X110809524Y-83785771D01*
X110809524Y-83785771D02*
X110857143Y-83881009D01*
X110857143Y-83881009D02*
X110857143Y-84404819D01*
X110857143Y-83881009D02*
X110904762Y-83785771D01*
X110904762Y-83785771D02*
X111000000Y-83738152D01*
X111000000Y-83738152D02*
X111142857Y-83738152D01*
X111142857Y-83738152D02*
X111238096Y-83785771D01*
X111238096Y-83785771D02*
X111285715Y-83881009D01*
X111285715Y-83881009D02*
X111285715Y-84404819D01*
X112190476Y-84404819D02*
X112190476Y-83881009D01*
X112190476Y-83881009D02*
X112142857Y-83785771D01*
X112142857Y-83785771D02*
X112047619Y-83738152D01*
X112047619Y-83738152D02*
X111857143Y-83738152D01*
X111857143Y-83738152D02*
X111761905Y-83785771D01*
X112190476Y-84357200D02*
X112095238Y-84404819D01*
X112095238Y-84404819D02*
X111857143Y-84404819D01*
X111857143Y-84404819D02*
X111761905Y-84357200D01*
X111761905Y-84357200D02*
X111714286Y-84261961D01*
X111714286Y-84261961D02*
X111714286Y-84166723D01*
X111714286Y-84166723D02*
X111761905Y-84071485D01*
X111761905Y-84071485D02*
X111857143Y-84023866D01*
X111857143Y-84023866D02*
X112095238Y-84023866D01*
X112095238Y-84023866D02*
X112190476Y-83976247D01*
X113095238Y-84357200D02*
X113000000Y-84404819D01*
X113000000Y-84404819D02*
X112809524Y-84404819D01*
X112809524Y-84404819D02*
X112714286Y-84357200D01*
X112714286Y-84357200D02*
X112666667Y-84309580D01*
X112666667Y-84309580D02*
X112619048Y-84214342D01*
X112619048Y-84214342D02*
X112619048Y-83928628D01*
X112619048Y-83928628D02*
X112666667Y-83833390D01*
X112666667Y-83833390D02*
X112714286Y-83785771D01*
X112714286Y-83785771D02*
X112809524Y-83738152D01*
X112809524Y-83738152D02*
X113000000Y-83738152D01*
X113000000Y-83738152D02*
X113095238Y-83785771D01*
X114714286Y-83738152D02*
X114714286Y-84547676D01*
X114714286Y-84547676D02*
X114666667Y-84642914D01*
X114666667Y-84642914D02*
X114619048Y-84690533D01*
X114619048Y-84690533D02*
X114523810Y-84738152D01*
X114523810Y-84738152D02*
X114380953Y-84738152D01*
X114380953Y-84738152D02*
X114285715Y-84690533D01*
X114714286Y-84357200D02*
X114619048Y-84404819D01*
X114619048Y-84404819D02*
X114428572Y-84404819D01*
X114428572Y-84404819D02*
X114333334Y-84357200D01*
X114333334Y-84357200D02*
X114285715Y-84309580D01*
X114285715Y-84309580D02*
X114238096Y-84214342D01*
X114238096Y-84214342D02*
X114238096Y-83928628D01*
X114238096Y-83928628D02*
X114285715Y-83833390D01*
X114285715Y-83833390D02*
X114333334Y-83785771D01*
X114333334Y-83785771D02*
X114428572Y-83738152D01*
X114428572Y-83738152D02*
X114619048Y-83738152D01*
X114619048Y-83738152D02*
X114714286Y-83785771D01*
X115619048Y-83738152D02*
X115619048Y-84404819D01*
X115380953Y-83357200D02*
X115142858Y-84071485D01*
X115142858Y-84071485D02*
X115761905Y-84071485D01*
X137454819Y-56857142D02*
X136454819Y-56857142D01*
X137407200Y-56857142D02*
X137454819Y-56952380D01*
X137454819Y-56952380D02*
X137454819Y-57142856D01*
X137454819Y-57142856D02*
X137407200Y-57238094D01*
X137407200Y-57238094D02*
X137359580Y-57285713D01*
X137359580Y-57285713D02*
X137264342Y-57333332D01*
X137264342Y-57333332D02*
X136978628Y-57333332D01*
X136978628Y-57333332D02*
X136883390Y-57285713D01*
X136883390Y-57285713D02*
X136835771Y-57238094D01*
X136835771Y-57238094D02*
X136788152Y-57142856D01*
X136788152Y-57142856D02*
X136788152Y-56952380D01*
X136788152Y-56952380D02*
X136835771Y-56857142D01*
X137454819Y-56380951D02*
X136788152Y-56380951D01*
X136454819Y-56380951D02*
X136502438Y-56428570D01*
X136502438Y-56428570D02*
X136550057Y-56380951D01*
X136550057Y-56380951D02*
X136502438Y-56333332D01*
X136502438Y-56333332D02*
X136454819Y-56380951D01*
X136454819Y-56380951D02*
X136550057Y-56380951D01*
X137454819Y-55761904D02*
X137407200Y-55857142D01*
X137407200Y-55857142D02*
X137359580Y-55904761D01*
X137359580Y-55904761D02*
X137264342Y-55952380D01*
X137264342Y-55952380D02*
X136978628Y-55952380D01*
X136978628Y-55952380D02*
X136883390Y-55904761D01*
X136883390Y-55904761D02*
X136835771Y-55857142D01*
X136835771Y-55857142D02*
X136788152Y-55761904D01*
X136788152Y-55761904D02*
X136788152Y-55619047D01*
X136788152Y-55619047D02*
X136835771Y-55523809D01*
X136835771Y-55523809D02*
X136883390Y-55476190D01*
X136883390Y-55476190D02*
X136978628Y-55428571D01*
X136978628Y-55428571D02*
X137264342Y-55428571D01*
X137264342Y-55428571D02*
X137359580Y-55476190D01*
X137359580Y-55476190D02*
X137407200Y-55523809D01*
X137407200Y-55523809D02*
X137454819Y-55619047D01*
X137454819Y-55619047D02*
X137454819Y-55761904D01*
X137454819Y-54571428D02*
X136454819Y-54571428D01*
X137407200Y-54571428D02*
X137454819Y-54666666D01*
X137454819Y-54666666D02*
X137454819Y-54857142D01*
X137454819Y-54857142D02*
X137407200Y-54952380D01*
X137407200Y-54952380D02*
X137359580Y-54999999D01*
X137359580Y-54999999D02*
X137264342Y-55047618D01*
X137264342Y-55047618D02*
X136978628Y-55047618D01*
X136978628Y-55047618D02*
X136883390Y-54999999D01*
X136883390Y-54999999D02*
X136835771Y-54952380D01*
X136835771Y-54952380D02*
X136788152Y-54857142D01*
X136788152Y-54857142D02*
X136788152Y-54666666D01*
X136788152Y-54666666D02*
X136835771Y-54571428D01*
X137407200Y-53714285D02*
X137454819Y-53809523D01*
X137454819Y-53809523D02*
X137454819Y-53999999D01*
X137454819Y-53999999D02*
X137407200Y-54095237D01*
X137407200Y-54095237D02*
X137311961Y-54142856D01*
X137311961Y-54142856D02*
X136931009Y-54142856D01*
X136931009Y-54142856D02*
X136835771Y-54095237D01*
X136835771Y-54095237D02*
X136788152Y-53999999D01*
X136788152Y-53999999D02*
X136788152Y-53809523D01*
X136788152Y-53809523D02*
X136835771Y-53714285D01*
X136835771Y-53714285D02*
X136931009Y-53666666D01*
X136931009Y-53666666D02*
X137026247Y-53666666D01*
X137026247Y-53666666D02*
X137121485Y-54142856D01*
X146454819Y-59357143D02*
X145454819Y-59357143D01*
X146407200Y-59357143D02*
X146454819Y-59452381D01*
X146454819Y-59452381D02*
X146454819Y-59642857D01*
X146454819Y-59642857D02*
X146407200Y-59738095D01*
X146407200Y-59738095D02*
X146359580Y-59785714D01*
X146359580Y-59785714D02*
X146264342Y-59833333D01*
X146264342Y-59833333D02*
X145978628Y-59833333D01*
X145978628Y-59833333D02*
X145883390Y-59785714D01*
X145883390Y-59785714D02*
X145835771Y-59738095D01*
X145835771Y-59738095D02*
X145788152Y-59642857D01*
X145788152Y-59642857D02*
X145788152Y-59452381D01*
X145788152Y-59452381D02*
X145835771Y-59357143D01*
X146454819Y-58880952D02*
X145788152Y-58880952D01*
X145454819Y-58880952D02*
X145502438Y-58928571D01*
X145502438Y-58928571D02*
X145550057Y-58880952D01*
X145550057Y-58880952D02*
X145502438Y-58833333D01*
X145502438Y-58833333D02*
X145454819Y-58880952D01*
X145454819Y-58880952D02*
X145550057Y-58880952D01*
X146454819Y-58261905D02*
X146407200Y-58357143D01*
X146407200Y-58357143D02*
X146359580Y-58404762D01*
X146359580Y-58404762D02*
X146264342Y-58452381D01*
X146264342Y-58452381D02*
X145978628Y-58452381D01*
X145978628Y-58452381D02*
X145883390Y-58404762D01*
X145883390Y-58404762D02*
X145835771Y-58357143D01*
X145835771Y-58357143D02*
X145788152Y-58261905D01*
X145788152Y-58261905D02*
X145788152Y-58119048D01*
X145788152Y-58119048D02*
X145835771Y-58023810D01*
X145835771Y-58023810D02*
X145883390Y-57976191D01*
X145883390Y-57976191D02*
X145978628Y-57928572D01*
X145978628Y-57928572D02*
X146264342Y-57928572D01*
X146264342Y-57928572D02*
X146359580Y-57976191D01*
X146359580Y-57976191D02*
X146407200Y-58023810D01*
X146407200Y-58023810D02*
X146454819Y-58119048D01*
X146454819Y-58119048D02*
X146454819Y-58261905D01*
X146454819Y-57071429D02*
X145454819Y-57071429D01*
X146407200Y-57071429D02*
X146454819Y-57166667D01*
X146454819Y-57166667D02*
X146454819Y-57357143D01*
X146454819Y-57357143D02*
X146407200Y-57452381D01*
X146407200Y-57452381D02*
X146359580Y-57500000D01*
X146359580Y-57500000D02*
X146264342Y-57547619D01*
X146264342Y-57547619D02*
X145978628Y-57547619D01*
X145978628Y-57547619D02*
X145883390Y-57500000D01*
X145883390Y-57500000D02*
X145835771Y-57452381D01*
X145835771Y-57452381D02*
X145788152Y-57357143D01*
X145788152Y-57357143D02*
X145788152Y-57166667D01*
X145788152Y-57166667D02*
X145835771Y-57071429D01*
X146407200Y-56214286D02*
X146454819Y-56309524D01*
X146454819Y-56309524D02*
X146454819Y-56500000D01*
X146454819Y-56500000D02*
X146407200Y-56595238D01*
X146407200Y-56595238D02*
X146311961Y-56642857D01*
X146311961Y-56642857D02*
X145931009Y-56642857D01*
X145931009Y-56642857D02*
X145835771Y-56595238D01*
X145835771Y-56595238D02*
X145788152Y-56500000D01*
X145788152Y-56500000D02*
X145788152Y-56309524D01*
X145788152Y-56309524D02*
X145835771Y-56214286D01*
X145835771Y-56214286D02*
X145931009Y-56166667D01*
X145931009Y-56166667D02*
X146026247Y-56166667D01*
X146026247Y-56166667D02*
X146121485Y-56642857D01*
X145454819Y-54500000D02*
X145454819Y-54976190D01*
X145454819Y-54976190D02*
X145931009Y-55023809D01*
X145931009Y-55023809D02*
X145883390Y-54976190D01*
X145883390Y-54976190D02*
X145835771Y-54880952D01*
X145835771Y-54880952D02*
X145835771Y-54642857D01*
X145835771Y-54642857D02*
X145883390Y-54547619D01*
X145883390Y-54547619D02*
X145931009Y-54500000D01*
X145931009Y-54500000D02*
X146026247Y-54452381D01*
X146026247Y-54452381D02*
X146264342Y-54452381D01*
X146264342Y-54452381D02*
X146359580Y-54500000D01*
X146359580Y-54500000D02*
X146407200Y-54547619D01*
X146407200Y-54547619D02*
X146454819Y-54642857D01*
X146454819Y-54642857D02*
X146454819Y-54880952D01*
X146454819Y-54880952D02*
X146407200Y-54976190D01*
X146407200Y-54976190D02*
X146359580Y-55023809D01*
X145454819Y-53833333D02*
X145454819Y-53738095D01*
X145454819Y-53738095D02*
X145502438Y-53642857D01*
X145502438Y-53642857D02*
X145550057Y-53595238D01*
X145550057Y-53595238D02*
X145645295Y-53547619D01*
X145645295Y-53547619D02*
X145835771Y-53500000D01*
X145835771Y-53500000D02*
X146073866Y-53500000D01*
X146073866Y-53500000D02*
X146264342Y-53547619D01*
X146264342Y-53547619D02*
X146359580Y-53595238D01*
X146359580Y-53595238D02*
X146407200Y-53642857D01*
X146407200Y-53642857D02*
X146454819Y-53738095D01*
X146454819Y-53738095D02*
X146454819Y-53833333D01*
X146454819Y-53833333D02*
X146407200Y-53928571D01*
X146407200Y-53928571D02*
X146359580Y-53976190D01*
X146359580Y-53976190D02*
X146264342Y-54023809D01*
X146264342Y-54023809D02*
X146073866Y-54071428D01*
X146073866Y-54071428D02*
X145835771Y-54071428D01*
X145835771Y-54071428D02*
X145645295Y-54023809D01*
X145645295Y-54023809D02*
X145550057Y-53976190D01*
X145550057Y-53976190D02*
X145502438Y-53928571D01*
X145502438Y-53928571D02*
X145454819Y-53833333D01*
X145788152Y-53166666D02*
X146454819Y-52928571D01*
X146454819Y-52928571D02*
X145788152Y-52690476D01*
X145454819Y-51642856D02*
X145454819Y-51023809D01*
X145454819Y-51023809D02*
X145835771Y-51357142D01*
X145835771Y-51357142D02*
X145835771Y-51214285D01*
X145835771Y-51214285D02*
X145883390Y-51119047D01*
X145883390Y-51119047D02*
X145931009Y-51071428D01*
X145931009Y-51071428D02*
X146026247Y-51023809D01*
X146026247Y-51023809D02*
X146264342Y-51023809D01*
X146264342Y-51023809D02*
X146359580Y-51071428D01*
X146359580Y-51071428D02*
X146407200Y-51119047D01*
X146407200Y-51119047D02*
X146454819Y-51214285D01*
X146454819Y-51214285D02*
X146454819Y-51499999D01*
X146454819Y-51499999D02*
X146407200Y-51595237D01*
X146407200Y-51595237D02*
X146359580Y-51642856D01*
X146169104Y-50642856D02*
X146169104Y-50166666D01*
X146454819Y-50738094D02*
X145454819Y-50404761D01*
X145454819Y-50404761D02*
X146454819Y-50071428D01*
X86399999Y-60154819D02*
X86399999Y-59154819D01*
X86399999Y-59154819D02*
X86733332Y-59869104D01*
X86733332Y-59869104D02*
X87066665Y-59154819D01*
X87066665Y-59154819D02*
X87066665Y-60154819D01*
X87685713Y-60154819D02*
X87590475Y-60107200D01*
X87590475Y-60107200D02*
X87542856Y-60059580D01*
X87542856Y-60059580D02*
X87495237Y-59964342D01*
X87495237Y-59964342D02*
X87495237Y-59678628D01*
X87495237Y-59678628D02*
X87542856Y-59583390D01*
X87542856Y-59583390D02*
X87590475Y-59535771D01*
X87590475Y-59535771D02*
X87685713Y-59488152D01*
X87685713Y-59488152D02*
X87828570Y-59488152D01*
X87828570Y-59488152D02*
X87923808Y-59535771D01*
X87923808Y-59535771D02*
X87971427Y-59583390D01*
X87971427Y-59583390D02*
X88019046Y-59678628D01*
X88019046Y-59678628D02*
X88019046Y-59964342D01*
X88019046Y-59964342D02*
X87971427Y-60059580D01*
X87971427Y-60059580D02*
X87923808Y-60107200D01*
X87923808Y-60107200D02*
X87828570Y-60154819D01*
X87828570Y-60154819D02*
X87685713Y-60154819D01*
X88590475Y-60154819D02*
X88495237Y-60107200D01*
X88495237Y-60107200D02*
X88447618Y-60011961D01*
X88447618Y-60011961D02*
X88447618Y-59154819D01*
X89352380Y-60107200D02*
X89257142Y-60154819D01*
X89257142Y-60154819D02*
X89066666Y-60154819D01*
X89066666Y-60154819D02*
X88971428Y-60107200D01*
X88971428Y-60107200D02*
X88923809Y-60011961D01*
X88923809Y-60011961D02*
X88923809Y-59631009D01*
X88923809Y-59631009D02*
X88971428Y-59535771D01*
X88971428Y-59535771D02*
X89066666Y-59488152D01*
X89066666Y-59488152D02*
X89257142Y-59488152D01*
X89257142Y-59488152D02*
X89352380Y-59535771D01*
X89352380Y-59535771D02*
X89399999Y-59631009D01*
X89399999Y-59631009D02*
X89399999Y-59726247D01*
X89399999Y-59726247D02*
X88923809Y-59821485D01*
X89733333Y-60154819D02*
X90257142Y-59488152D01*
X89733333Y-59488152D02*
X90257142Y-60154819D01*
X90400000Y-60250057D02*
X91161904Y-60250057D01*
X91400000Y-60154819D02*
X91400000Y-59154819D01*
X91400000Y-59154819D02*
X91733333Y-59869104D01*
X91733333Y-59869104D02*
X92066666Y-59154819D01*
X92066666Y-59154819D02*
X92066666Y-60154819D01*
X92542857Y-60154819D02*
X92542857Y-59488152D01*
X92542857Y-59154819D02*
X92495238Y-59202438D01*
X92495238Y-59202438D02*
X92542857Y-59250057D01*
X92542857Y-59250057D02*
X92590476Y-59202438D01*
X92590476Y-59202438D02*
X92542857Y-59154819D01*
X92542857Y-59154819D02*
X92542857Y-59250057D01*
X93019047Y-59488152D02*
X93019047Y-60154819D01*
X93019047Y-59583390D02*
X93066666Y-59535771D01*
X93066666Y-59535771D02*
X93161904Y-59488152D01*
X93161904Y-59488152D02*
X93304761Y-59488152D01*
X93304761Y-59488152D02*
X93399999Y-59535771D01*
X93399999Y-59535771D02*
X93447618Y-59631009D01*
X93447618Y-59631009D02*
X93447618Y-60154819D01*
X93923809Y-60154819D02*
X93923809Y-59488152D01*
X93923809Y-59154819D02*
X93876190Y-59202438D01*
X93876190Y-59202438D02*
X93923809Y-59250057D01*
X93923809Y-59250057D02*
X93971428Y-59202438D01*
X93971428Y-59202438D02*
X93923809Y-59154819D01*
X93923809Y-59154819D02*
X93923809Y-59250057D01*
X94399999Y-59773866D02*
X95161904Y-59773866D01*
X95971427Y-59631009D02*
X95638094Y-59631009D01*
X95638094Y-60154819D02*
X95638094Y-59154819D01*
X95638094Y-59154819D02*
X96114284Y-59154819D01*
X96495237Y-60154819D02*
X96495237Y-59488152D01*
X96495237Y-59154819D02*
X96447618Y-59202438D01*
X96447618Y-59202438D02*
X96495237Y-59250057D01*
X96495237Y-59250057D02*
X96542856Y-59202438D01*
X96542856Y-59202438D02*
X96495237Y-59154819D01*
X96495237Y-59154819D02*
X96495237Y-59250057D01*
X96828570Y-59488152D02*
X97209522Y-59488152D01*
X96971427Y-59154819D02*
X96971427Y-60011961D01*
X96971427Y-60011961D02*
X97019046Y-60107200D01*
X97019046Y-60107200D02*
X97114284Y-60154819D01*
X97114284Y-60154819D02*
X97209522Y-60154819D01*
X97304761Y-60250057D02*
X98066665Y-60250057D01*
X98590475Y-59154819D02*
X98590475Y-59869104D01*
X98590475Y-59869104D02*
X98542856Y-60011961D01*
X98542856Y-60011961D02*
X98447618Y-60107200D01*
X98447618Y-60107200D02*
X98304761Y-60154819D01*
X98304761Y-60154819D02*
X98209523Y-60154819D01*
X99066666Y-60154819D02*
X99066666Y-59488152D01*
X99066666Y-59678628D02*
X99114285Y-59583390D01*
X99114285Y-59583390D02*
X99161904Y-59535771D01*
X99161904Y-59535771D02*
X99257142Y-59488152D01*
X99257142Y-59488152D02*
X99352380Y-59488152D01*
X99447619Y-60250057D02*
X100209523Y-60250057D01*
X100923809Y-59154819D02*
X100447619Y-59154819D01*
X100447619Y-59154819D02*
X100400000Y-59631009D01*
X100400000Y-59631009D02*
X100447619Y-59583390D01*
X100447619Y-59583390D02*
X100542857Y-59535771D01*
X100542857Y-59535771D02*
X100780952Y-59535771D01*
X100780952Y-59535771D02*
X100876190Y-59583390D01*
X100876190Y-59583390D02*
X100923809Y-59631009D01*
X100923809Y-59631009D02*
X100971428Y-59726247D01*
X100971428Y-59726247D02*
X100971428Y-59964342D01*
X100971428Y-59964342D02*
X100923809Y-60059580D01*
X100923809Y-60059580D02*
X100876190Y-60107200D01*
X100876190Y-60107200D02*
X100780952Y-60154819D01*
X100780952Y-60154819D02*
X100542857Y-60154819D01*
X100542857Y-60154819D02*
X100447619Y-60107200D01*
X100447619Y-60107200D02*
X100400000Y-60059580D01*
X101876190Y-59154819D02*
X101400000Y-59154819D01*
X101400000Y-59154819D02*
X101352381Y-59631009D01*
X101352381Y-59631009D02*
X101400000Y-59583390D01*
X101400000Y-59583390D02*
X101495238Y-59535771D01*
X101495238Y-59535771D02*
X101733333Y-59535771D01*
X101733333Y-59535771D02*
X101828571Y-59583390D01*
X101828571Y-59583390D02*
X101876190Y-59631009D01*
X101876190Y-59631009D02*
X101923809Y-59726247D01*
X101923809Y-59726247D02*
X101923809Y-59964342D01*
X101923809Y-59964342D02*
X101876190Y-60059580D01*
X101876190Y-60059580D02*
X101828571Y-60107200D01*
X101828571Y-60107200D02*
X101733333Y-60154819D01*
X101733333Y-60154819D02*
X101495238Y-60154819D01*
X101495238Y-60154819D02*
X101400000Y-60107200D01*
X101400000Y-60107200D02*
X101352381Y-60059580D01*
X102780952Y-59154819D02*
X102590476Y-59154819D01*
X102590476Y-59154819D02*
X102495238Y-59202438D01*
X102495238Y-59202438D02*
X102447619Y-59250057D01*
X102447619Y-59250057D02*
X102352381Y-59392914D01*
X102352381Y-59392914D02*
X102304762Y-59583390D01*
X102304762Y-59583390D02*
X102304762Y-59964342D01*
X102304762Y-59964342D02*
X102352381Y-60059580D01*
X102352381Y-60059580D02*
X102400000Y-60107200D01*
X102400000Y-60107200D02*
X102495238Y-60154819D01*
X102495238Y-60154819D02*
X102685714Y-60154819D01*
X102685714Y-60154819D02*
X102780952Y-60107200D01*
X102780952Y-60107200D02*
X102828571Y-60059580D01*
X102828571Y-60059580D02*
X102876190Y-59964342D01*
X102876190Y-59964342D02*
X102876190Y-59726247D01*
X102876190Y-59726247D02*
X102828571Y-59631009D01*
X102828571Y-59631009D02*
X102780952Y-59583390D01*
X102780952Y-59583390D02*
X102685714Y-59535771D01*
X102685714Y-59535771D02*
X102495238Y-59535771D01*
X102495238Y-59535771D02*
X102400000Y-59583390D01*
X102400000Y-59583390D02*
X102352381Y-59631009D01*
X102352381Y-59631009D02*
X102304762Y-59726247D01*
X103733333Y-59154819D02*
X103542857Y-59154819D01*
X103542857Y-59154819D02*
X103447619Y-59202438D01*
X103447619Y-59202438D02*
X103400000Y-59250057D01*
X103400000Y-59250057D02*
X103304762Y-59392914D01*
X103304762Y-59392914D02*
X103257143Y-59583390D01*
X103257143Y-59583390D02*
X103257143Y-59964342D01*
X103257143Y-59964342D02*
X103304762Y-60059580D01*
X103304762Y-60059580D02*
X103352381Y-60107200D01*
X103352381Y-60107200D02*
X103447619Y-60154819D01*
X103447619Y-60154819D02*
X103638095Y-60154819D01*
X103638095Y-60154819D02*
X103733333Y-60107200D01*
X103733333Y-60107200D02*
X103780952Y-60059580D01*
X103780952Y-60059580D02*
X103828571Y-59964342D01*
X103828571Y-59964342D02*
X103828571Y-59726247D01*
X103828571Y-59726247D02*
X103780952Y-59631009D01*
X103780952Y-59631009D02*
X103733333Y-59583390D01*
X103733333Y-59583390D02*
X103638095Y-59535771D01*
X103638095Y-59535771D02*
X103447619Y-59535771D01*
X103447619Y-59535771D02*
X103352381Y-59583390D01*
X103352381Y-59583390D02*
X103304762Y-59631009D01*
X103304762Y-59631009D02*
X103257143Y-59726247D01*
X104257143Y-59773866D02*
X105019048Y-59773866D01*
X105447619Y-59250057D02*
X105495238Y-59202438D01*
X105495238Y-59202438D02*
X105590476Y-59154819D01*
X105590476Y-59154819D02*
X105828571Y-59154819D01*
X105828571Y-59154819D02*
X105923809Y-59202438D01*
X105923809Y-59202438D02*
X105971428Y-59250057D01*
X105971428Y-59250057D02*
X106019047Y-59345295D01*
X106019047Y-59345295D02*
X106019047Y-59440533D01*
X106019047Y-59440533D02*
X105971428Y-59583390D01*
X105971428Y-59583390D02*
X105400000Y-60154819D01*
X105400000Y-60154819D02*
X106019047Y-60154819D01*
X106638095Y-59154819D02*
X106733333Y-59154819D01*
X106733333Y-59154819D02*
X106828571Y-59202438D01*
X106828571Y-59202438D02*
X106876190Y-59250057D01*
X106876190Y-59250057D02*
X106923809Y-59345295D01*
X106923809Y-59345295D02*
X106971428Y-59535771D01*
X106971428Y-59535771D02*
X106971428Y-59773866D01*
X106971428Y-59773866D02*
X106923809Y-59964342D01*
X106923809Y-59964342D02*
X106876190Y-60059580D01*
X106876190Y-60059580D02*
X106828571Y-60107200D01*
X106828571Y-60107200D02*
X106733333Y-60154819D01*
X106733333Y-60154819D02*
X106638095Y-60154819D01*
X106638095Y-60154819D02*
X106542857Y-60107200D01*
X106542857Y-60107200D02*
X106495238Y-60059580D01*
X106495238Y-60059580D02*
X106447619Y-59964342D01*
X106447619Y-59964342D02*
X106400000Y-59773866D01*
X106400000Y-59773866D02*
X106400000Y-59535771D01*
X106400000Y-59535771D02*
X106447619Y-59345295D01*
X106447619Y-59345295D02*
X106495238Y-59250057D01*
X106495238Y-59250057D02*
X106542857Y-59202438D01*
X106542857Y-59202438D02*
X106638095Y-59154819D01*
X107352381Y-59869104D02*
X107828571Y-59869104D01*
X107257143Y-60154819D02*
X107590476Y-59154819D01*
X107590476Y-59154819D02*
X107923809Y-60154819D01*
X108019048Y-60250057D02*
X108780952Y-60250057D01*
X108971429Y-59250057D02*
X109019048Y-59202438D01*
X109019048Y-59202438D02*
X109114286Y-59154819D01*
X109114286Y-59154819D02*
X109352381Y-59154819D01*
X109352381Y-59154819D02*
X109447619Y-59202438D01*
X109447619Y-59202438D02*
X109495238Y-59250057D01*
X109495238Y-59250057D02*
X109542857Y-59345295D01*
X109542857Y-59345295D02*
X109542857Y-59440533D01*
X109542857Y-59440533D02*
X109495238Y-59583390D01*
X109495238Y-59583390D02*
X108923810Y-60154819D01*
X108923810Y-60154819D02*
X109542857Y-60154819D01*
X109876191Y-60154819D02*
X110400000Y-59488152D01*
X109876191Y-59488152D02*
X110400000Y-60154819D01*
X111304762Y-60154819D02*
X110733334Y-60154819D01*
X111019048Y-60154819D02*
X111019048Y-59154819D01*
X111019048Y-59154819D02*
X110923810Y-59297676D01*
X110923810Y-59297676D02*
X110828572Y-59392914D01*
X110828572Y-59392914D02*
X110733334Y-59440533D01*
X111923810Y-59154819D02*
X112019048Y-59154819D01*
X112019048Y-59154819D02*
X112114286Y-59202438D01*
X112114286Y-59202438D02*
X112161905Y-59250057D01*
X112161905Y-59250057D02*
X112209524Y-59345295D01*
X112209524Y-59345295D02*
X112257143Y-59535771D01*
X112257143Y-59535771D02*
X112257143Y-59773866D01*
X112257143Y-59773866D02*
X112209524Y-59964342D01*
X112209524Y-59964342D02*
X112161905Y-60059580D01*
X112161905Y-60059580D02*
X112114286Y-60107200D01*
X112114286Y-60107200D02*
X112019048Y-60154819D01*
X112019048Y-60154819D02*
X111923810Y-60154819D01*
X111923810Y-60154819D02*
X111828572Y-60107200D01*
X111828572Y-60107200D02*
X111780953Y-60059580D01*
X111780953Y-60059580D02*
X111733334Y-59964342D01*
X111733334Y-59964342D02*
X111685715Y-59773866D01*
X111685715Y-59773866D02*
X111685715Y-59535771D01*
X111685715Y-59535771D02*
X111733334Y-59345295D01*
X111733334Y-59345295D02*
X111780953Y-59250057D01*
X111780953Y-59250057D02*
X111828572Y-59202438D01*
X111828572Y-59202438D02*
X111923810Y-59154819D01*
X112447620Y-60250057D02*
X113209524Y-60250057D01*
X113447620Y-60154819D02*
X113447620Y-59154819D01*
X113447620Y-59154819D02*
X113828572Y-59154819D01*
X113828572Y-59154819D02*
X113923810Y-59202438D01*
X113923810Y-59202438D02*
X113971429Y-59250057D01*
X113971429Y-59250057D02*
X114019048Y-59345295D01*
X114019048Y-59345295D02*
X114019048Y-59488152D01*
X114019048Y-59488152D02*
X113971429Y-59583390D01*
X113971429Y-59583390D02*
X113923810Y-59631009D01*
X113923810Y-59631009D02*
X113828572Y-59678628D01*
X113828572Y-59678628D02*
X113447620Y-59678628D01*
X114876191Y-59488152D02*
X114876191Y-60154819D01*
X114638096Y-59107200D02*
X114400001Y-59821485D01*
X114400001Y-59821485D02*
X115019048Y-59821485D01*
X115400001Y-60059580D02*
X115447620Y-60107200D01*
X115447620Y-60107200D02*
X115400001Y-60154819D01*
X115400001Y-60154819D02*
X115352382Y-60107200D01*
X115352382Y-60107200D02*
X115400001Y-60059580D01*
X115400001Y-60059580D02*
X115400001Y-60154819D01*
X115828572Y-59250057D02*
X115876191Y-59202438D01*
X115876191Y-59202438D02*
X115971429Y-59154819D01*
X115971429Y-59154819D02*
X116209524Y-59154819D01*
X116209524Y-59154819D02*
X116304762Y-59202438D01*
X116304762Y-59202438D02*
X116352381Y-59250057D01*
X116352381Y-59250057D02*
X116400000Y-59345295D01*
X116400000Y-59345295D02*
X116400000Y-59440533D01*
X116400000Y-59440533D02*
X116352381Y-59583390D01*
X116352381Y-59583390D02*
X115780953Y-60154819D01*
X115780953Y-60154819D02*
X116400000Y-60154819D01*
X117019048Y-59154819D02*
X117114286Y-59154819D01*
X117114286Y-59154819D02*
X117209524Y-59202438D01*
X117209524Y-59202438D02*
X117257143Y-59250057D01*
X117257143Y-59250057D02*
X117304762Y-59345295D01*
X117304762Y-59345295D02*
X117352381Y-59535771D01*
X117352381Y-59535771D02*
X117352381Y-59773866D01*
X117352381Y-59773866D02*
X117304762Y-59964342D01*
X117304762Y-59964342D02*
X117257143Y-60059580D01*
X117257143Y-60059580D02*
X117209524Y-60107200D01*
X117209524Y-60107200D02*
X117114286Y-60154819D01*
X117114286Y-60154819D02*
X117019048Y-60154819D01*
X117019048Y-60154819D02*
X116923810Y-60107200D01*
X116923810Y-60107200D02*
X116876191Y-60059580D01*
X116876191Y-60059580D02*
X116828572Y-59964342D01*
X116828572Y-59964342D02*
X116780953Y-59773866D01*
X116780953Y-59773866D02*
X116780953Y-59535771D01*
X116780953Y-59535771D02*
X116828572Y-59345295D01*
X116828572Y-59345295D02*
X116876191Y-59250057D01*
X116876191Y-59250057D02*
X116923810Y-59202438D01*
X116923810Y-59202438D02*
X117019048Y-59154819D01*
X117780953Y-60154819D02*
X117780953Y-59488152D01*
X117780953Y-59583390D02*
X117828572Y-59535771D01*
X117828572Y-59535771D02*
X117923810Y-59488152D01*
X117923810Y-59488152D02*
X118066667Y-59488152D01*
X118066667Y-59488152D02*
X118161905Y-59535771D01*
X118161905Y-59535771D02*
X118209524Y-59631009D01*
X118209524Y-59631009D02*
X118209524Y-60154819D01*
X118209524Y-59631009D02*
X118257143Y-59535771D01*
X118257143Y-59535771D02*
X118352381Y-59488152D01*
X118352381Y-59488152D02*
X118495238Y-59488152D01*
X118495238Y-59488152D02*
X118590477Y-59535771D01*
X118590477Y-59535771D02*
X118638096Y-59631009D01*
X118638096Y-59631009D02*
X118638096Y-60154819D01*
X119114286Y-60154819D02*
X119114286Y-59488152D01*
X119114286Y-59583390D02*
X119161905Y-59535771D01*
X119161905Y-59535771D02*
X119257143Y-59488152D01*
X119257143Y-59488152D02*
X119400000Y-59488152D01*
X119400000Y-59488152D02*
X119495238Y-59535771D01*
X119495238Y-59535771D02*
X119542857Y-59631009D01*
X119542857Y-59631009D02*
X119542857Y-60154819D01*
X119542857Y-59631009D02*
X119590476Y-59535771D01*
X119590476Y-59535771D02*
X119685714Y-59488152D01*
X119685714Y-59488152D02*
X119828571Y-59488152D01*
X119828571Y-59488152D02*
X119923810Y-59535771D01*
X119923810Y-59535771D02*
X119971429Y-59631009D01*
X119971429Y-59631009D02*
X119971429Y-60154819D01*
X120209524Y-60250057D02*
X120971428Y-60250057D01*
X121066667Y-59154819D02*
X121400000Y-60154819D01*
X121400000Y-60154819D02*
X121733333Y-59154819D01*
X122447619Y-60107200D02*
X122352381Y-60154819D01*
X122352381Y-60154819D02*
X122161905Y-60154819D01*
X122161905Y-60154819D02*
X122066667Y-60107200D01*
X122066667Y-60107200D02*
X122019048Y-60011961D01*
X122019048Y-60011961D02*
X122019048Y-59631009D01*
X122019048Y-59631009D02*
X122066667Y-59535771D01*
X122066667Y-59535771D02*
X122161905Y-59488152D01*
X122161905Y-59488152D02*
X122352381Y-59488152D01*
X122352381Y-59488152D02*
X122447619Y-59535771D01*
X122447619Y-59535771D02*
X122495238Y-59631009D01*
X122495238Y-59631009D02*
X122495238Y-59726247D01*
X122495238Y-59726247D02*
X122019048Y-59821485D01*
X122923810Y-60154819D02*
X122923810Y-59488152D01*
X122923810Y-59678628D02*
X122971429Y-59583390D01*
X122971429Y-59583390D02*
X123019048Y-59535771D01*
X123019048Y-59535771D02*
X123114286Y-59488152D01*
X123114286Y-59488152D02*
X123209524Y-59488152D01*
X123400001Y-59488152D02*
X123780953Y-59488152D01*
X123542858Y-59154819D02*
X123542858Y-60011961D01*
X123542858Y-60011961D02*
X123590477Y-60107200D01*
X123590477Y-60107200D02*
X123685715Y-60154819D01*
X123685715Y-60154819D02*
X123780953Y-60154819D01*
X124114287Y-60154819D02*
X124114287Y-59488152D01*
X124114287Y-59154819D02*
X124066668Y-59202438D01*
X124066668Y-59202438D02*
X124114287Y-59250057D01*
X124114287Y-59250057D02*
X124161906Y-59202438D01*
X124161906Y-59202438D02*
X124114287Y-59154819D01*
X124114287Y-59154819D02*
X124114287Y-59250057D01*
X125019048Y-60107200D02*
X124923810Y-60154819D01*
X124923810Y-60154819D02*
X124733334Y-60154819D01*
X124733334Y-60154819D02*
X124638096Y-60107200D01*
X124638096Y-60107200D02*
X124590477Y-60059580D01*
X124590477Y-60059580D02*
X124542858Y-59964342D01*
X124542858Y-59964342D02*
X124542858Y-59678628D01*
X124542858Y-59678628D02*
X124590477Y-59583390D01*
X124590477Y-59583390D02*
X124638096Y-59535771D01*
X124638096Y-59535771D02*
X124733334Y-59488152D01*
X124733334Y-59488152D02*
X124923810Y-59488152D01*
X124923810Y-59488152D02*
X125019048Y-59535771D01*
X125876191Y-60154819D02*
X125876191Y-59631009D01*
X125876191Y-59631009D02*
X125828572Y-59535771D01*
X125828572Y-59535771D02*
X125733334Y-59488152D01*
X125733334Y-59488152D02*
X125542858Y-59488152D01*
X125542858Y-59488152D02*
X125447620Y-59535771D01*
X125876191Y-60107200D02*
X125780953Y-60154819D01*
X125780953Y-60154819D02*
X125542858Y-60154819D01*
X125542858Y-60154819D02*
X125447620Y-60107200D01*
X125447620Y-60107200D02*
X125400001Y-60011961D01*
X125400001Y-60011961D02*
X125400001Y-59916723D01*
X125400001Y-59916723D02*
X125447620Y-59821485D01*
X125447620Y-59821485D02*
X125542858Y-59773866D01*
X125542858Y-59773866D02*
X125780953Y-59773866D01*
X125780953Y-59773866D02*
X125876191Y-59726247D01*
X126495239Y-60154819D02*
X126400001Y-60107200D01*
X126400001Y-60107200D02*
X126352382Y-60011961D01*
X126352382Y-60011961D02*
X126352382Y-59154819D01*
X104233332Y-48654819D02*
X104233332Y-48131009D01*
X104233332Y-48131009D02*
X104185713Y-48035771D01*
X104185713Y-48035771D02*
X104090475Y-47988152D01*
X104090475Y-47988152D02*
X103899999Y-47988152D01*
X103899999Y-47988152D02*
X103804761Y-48035771D01*
X104233332Y-48607200D02*
X104138094Y-48654819D01*
X104138094Y-48654819D02*
X103899999Y-48654819D01*
X103899999Y-48654819D02*
X103804761Y-48607200D01*
X103804761Y-48607200D02*
X103757142Y-48511961D01*
X103757142Y-48511961D02*
X103757142Y-48416723D01*
X103757142Y-48416723D02*
X103804761Y-48321485D01*
X103804761Y-48321485D02*
X103899999Y-48273866D01*
X103899999Y-48273866D02*
X104138094Y-48273866D01*
X104138094Y-48273866D02*
X104233332Y-48226247D01*
X104566666Y-47988152D02*
X104947618Y-47988152D01*
X104709523Y-47654819D02*
X104709523Y-48511961D01*
X104709523Y-48511961D02*
X104757142Y-48607200D01*
X104757142Y-48607200D02*
X104852380Y-48654819D01*
X104852380Y-48654819D02*
X104947618Y-48654819D01*
X105185714Y-48654819D02*
X105709523Y-47988152D01*
X105185714Y-47988152D02*
X105709523Y-48654819D01*
X106852381Y-47988152D02*
X106852381Y-48988152D01*
X106852381Y-48035771D02*
X106947619Y-47988152D01*
X106947619Y-47988152D02*
X107138095Y-47988152D01*
X107138095Y-47988152D02*
X107233333Y-48035771D01*
X107233333Y-48035771D02*
X107280952Y-48083390D01*
X107280952Y-48083390D02*
X107328571Y-48178628D01*
X107328571Y-48178628D02*
X107328571Y-48464342D01*
X107328571Y-48464342D02*
X107280952Y-48559580D01*
X107280952Y-48559580D02*
X107233333Y-48607200D01*
X107233333Y-48607200D02*
X107138095Y-48654819D01*
X107138095Y-48654819D02*
X106947619Y-48654819D01*
X106947619Y-48654819D02*
X106852381Y-48607200D01*
X107709524Y-48607200D02*
X107804762Y-48654819D01*
X107804762Y-48654819D02*
X107995238Y-48654819D01*
X107995238Y-48654819D02*
X108090476Y-48607200D01*
X108090476Y-48607200D02*
X108138095Y-48511961D01*
X108138095Y-48511961D02*
X108138095Y-48464342D01*
X108138095Y-48464342D02*
X108090476Y-48369104D01*
X108090476Y-48369104D02*
X107995238Y-48321485D01*
X107995238Y-48321485D02*
X107852381Y-48321485D01*
X107852381Y-48321485D02*
X107757143Y-48273866D01*
X107757143Y-48273866D02*
X107709524Y-48178628D01*
X107709524Y-48178628D02*
X107709524Y-48131009D01*
X107709524Y-48131009D02*
X107757143Y-48035771D01*
X107757143Y-48035771D02*
X107852381Y-47988152D01*
X107852381Y-47988152D02*
X107995238Y-47988152D01*
X107995238Y-47988152D02*
X108090476Y-48035771D01*
X108995238Y-47988152D02*
X108995238Y-48654819D01*
X108566667Y-47988152D02*
X108566667Y-48511961D01*
X108566667Y-48511961D02*
X108614286Y-48607200D01*
X108614286Y-48607200D02*
X108709524Y-48654819D01*
X108709524Y-48654819D02*
X108852381Y-48654819D01*
X108852381Y-48654819D02*
X108947619Y-48607200D01*
X108947619Y-48607200D02*
X108995238Y-48559580D01*
D12*
%TO.C,test switch*%
X75550000Y-62660000D02*
X76550000Y-63660000D01*
X72450000Y-62660000D02*
X75550000Y-62660000D01*
X76550000Y-63660000D02*
X76550000Y-69360000D01*
X75135000Y-64200000D02*
X73865000Y-64200000D01*
X75035000Y-64200000D02*
X75035000Y-65406667D01*
X74935000Y-64200000D02*
X74935000Y-65406667D01*
X74835000Y-64200000D02*
X74835000Y-65406667D01*
X74735000Y-64200000D02*
X74735000Y-65406667D01*
X74635000Y-64200000D02*
X74635000Y-65406667D01*
X74535000Y-64200000D02*
X74535000Y-65406667D01*
X74435000Y-64200000D02*
X74435000Y-65406667D01*
X74335000Y-64200000D02*
X74335000Y-65406667D01*
X74235000Y-64200000D02*
X74235000Y-65406667D01*
X74135000Y-64200000D02*
X74135000Y-65406667D01*
X74035000Y-64200000D02*
X74035000Y-65406667D01*
X73935000Y-64200000D02*
X73935000Y-65406667D01*
X73865000Y-64200000D02*
X73865000Y-67820000D01*
X75135000Y-65406667D02*
X73865000Y-65406667D01*
X75135000Y-67820000D02*
X75135000Y-64200000D01*
X73865000Y-67820000D02*
X75135000Y-67820000D01*
X76550000Y-69360000D02*
X72450000Y-69360000D01*
X72450000Y-69360000D02*
X72450000Y-62660000D01*
%TO.C,power mac g4*%
X86450000Y-82900000D02*
X86450000Y-85750000D01*
X86800000Y-83250000D02*
X86800000Y-92850000D01*
X86800000Y-92850000D02*
X134200000Y-92850000D01*
X87850000Y-84500000D02*
X87850000Y-87800000D01*
X87850000Y-87800000D02*
X91150000Y-87800000D01*
X87850000Y-89525000D02*
X88675000Y-88700000D01*
X87850000Y-92000000D02*
X87850000Y-89525000D01*
X88675000Y-88700000D02*
X90325000Y-88700000D01*
X89300000Y-82900000D02*
X86450000Y-82900000D01*
X90325000Y-88700000D02*
X91150000Y-89525000D01*
X91150000Y-84500000D02*
X87850000Y-84500000D01*
X91150000Y-87800000D02*
X91150000Y-84500000D01*
X91150000Y-89525000D02*
X91150000Y-92000000D01*
X91150000Y-92000000D02*
X87850000Y-92000000D01*
X92050000Y-85325000D02*
X92875000Y-84500000D01*
X92050000Y-87800000D02*
X92050000Y-85325000D01*
X92050000Y-88700000D02*
X92050000Y-92000000D01*
X92050000Y-92000000D02*
X95350000Y-92000000D01*
X92875000Y-84500000D02*
X94525000Y-84500000D01*
X94525000Y-84500000D02*
X95350000Y-85325000D01*
X95350000Y-85325000D02*
X95350000Y-87800000D01*
X95350000Y-87800000D02*
X92050000Y-87800000D01*
X95350000Y-88700000D02*
X92050000Y-88700000D01*
X95350000Y-92000000D02*
X95350000Y-88700000D01*
X96250000Y-85325000D02*
X97075000Y-84500000D01*
X96250000Y-87800000D02*
X96250000Y-85325000D01*
X96250000Y-88700000D02*
X96250000Y-92000000D01*
X96250000Y-92000000D02*
X99550000Y-92000000D01*
X97075000Y-84500000D02*
X98725000Y-84500000D01*
X98725000Y-84500000D02*
X99550000Y-85325000D01*
X99550000Y-85325000D02*
X99550000Y-87800000D01*
X99550000Y-87800000D02*
X96250000Y-87800000D01*
X99550000Y-88700000D02*
X96250000Y-88700000D01*
X99550000Y-92000000D02*
X99550000Y-88700000D01*
X100450000Y-84500000D02*
X100450000Y-87800000D01*
X100450000Y-87800000D02*
X103750000Y-87800000D01*
X100450000Y-89525000D02*
X101275000Y-88700000D01*
X100450000Y-92000000D02*
X100450000Y-89525000D01*
X101275000Y-88700000D02*
X102925000Y-88700000D01*
X102925000Y-88700000D02*
X103750000Y-89525000D01*
X103750000Y-84500000D02*
X100450000Y-84500000D01*
X103750000Y-87800000D02*
X103750000Y-84500000D01*
X103750000Y-89525000D02*
X103750000Y-92000000D01*
X103750000Y-92000000D02*
X100450000Y-92000000D01*
X104650000Y-84500000D02*
X104650000Y-87800000D01*
X104650000Y-87800000D02*
X107950000Y-87800000D01*
X104650000Y-89525000D02*
X105475000Y-88700000D01*
X104650000Y-92000000D02*
X104650000Y-89525000D01*
X105475000Y-88700000D02*
X107125000Y-88700000D01*
X107125000Y-88700000D02*
X107950000Y-89525000D01*
X107950000Y-84500000D02*
X104650000Y-84500000D01*
X107950000Y-87800000D02*
X107950000Y-84500000D01*
X107950000Y-89525000D02*
X107950000Y-92000000D01*
X107950000Y-92000000D02*
X104650000Y-92000000D01*
X108800000Y-92850000D02*
X108800000Y-94250000D01*
X108800000Y-94250000D02*
X112200000Y-94250000D01*
X108850000Y-85325000D02*
X109675000Y-84500000D01*
X108850000Y-87800000D02*
X108850000Y-85325000D01*
X108850000Y-88700000D02*
X108850000Y-92000000D01*
X108850000Y-92000000D02*
X112150000Y-92000000D01*
X109675000Y-84500000D02*
X111325000Y-84500000D01*
X111325000Y-84500000D02*
X112150000Y-85325000D01*
X112150000Y-85325000D02*
X112150000Y-87800000D01*
X112150000Y-87800000D02*
X108850000Y-87800000D01*
X112150000Y-88700000D02*
X108850000Y-88700000D01*
X112150000Y-92000000D02*
X112150000Y-88700000D01*
X112200000Y-94250000D02*
X112200000Y-92850000D01*
X113050000Y-85325000D02*
X113875000Y-84500000D01*
X113050000Y-87800000D02*
X113050000Y-85325000D01*
X113050000Y-88700000D02*
X113050000Y-92000000D01*
X113050000Y-92000000D02*
X116350000Y-92000000D01*
X113875000Y-84500000D02*
X115525000Y-84500000D01*
X115525000Y-84500000D02*
X116350000Y-85325000D01*
X116350000Y-85325000D02*
X116350000Y-87800000D01*
X116350000Y-87800000D02*
X113050000Y-87800000D01*
X116350000Y-88700000D02*
X113050000Y-88700000D01*
X116350000Y-92000000D02*
X116350000Y-88700000D01*
X117250000Y-84500000D02*
X117250000Y-87800000D01*
X117250000Y-87800000D02*
X120550000Y-87800000D01*
X117250000Y-89525000D02*
X118075000Y-88700000D01*
X117250000Y-92000000D02*
X117250000Y-89525000D01*
X118075000Y-88700000D02*
X119725000Y-88700000D01*
X119725000Y-88700000D02*
X120550000Y-89525000D01*
X120550000Y-84500000D02*
X117250000Y-84500000D01*
X120550000Y-87800000D02*
X120550000Y-84500000D01*
X120550000Y-89525000D02*
X120550000Y-92000000D01*
X120550000Y-92000000D02*
X117250000Y-92000000D01*
X121450000Y-84500000D02*
X121450000Y-87800000D01*
X121450000Y-87800000D02*
X124750000Y-87800000D01*
X121450000Y-89525000D02*
X122275000Y-88700000D01*
X121450000Y-92000000D02*
X121450000Y-89525000D01*
X122275000Y-88700000D02*
X123925000Y-88700000D01*
X123925000Y-88700000D02*
X124750000Y-89525000D01*
X124750000Y-84500000D02*
X121450000Y-84500000D01*
X124750000Y-87800000D02*
X124750000Y-84500000D01*
X124750000Y-89525000D02*
X124750000Y-92000000D01*
X124750000Y-92000000D02*
X121450000Y-92000000D01*
X125650000Y-85325000D02*
X126475000Y-84500000D01*
X125650000Y-87800000D02*
X125650000Y-85325000D01*
X125650000Y-88700000D02*
X125650000Y-92000000D01*
X125650000Y-92000000D02*
X128950000Y-92000000D01*
X126475000Y-84500000D02*
X128125000Y-84500000D01*
X128125000Y-84500000D02*
X128950000Y-85325000D01*
X128950000Y-85325000D02*
X128950000Y-87800000D01*
X128950000Y-87800000D02*
X125650000Y-87800000D01*
X128950000Y-88700000D02*
X125650000Y-88700000D01*
X128950000Y-92000000D02*
X128950000Y-88700000D01*
X129850000Y-85325000D02*
X130675000Y-84500000D01*
X129850000Y-87800000D02*
X129850000Y-85325000D01*
X129850000Y-88700000D02*
X129850000Y-92000000D01*
X129850000Y-92000000D02*
X133150000Y-92000000D01*
X130675000Y-84500000D02*
X132325000Y-84500000D01*
X132325000Y-84500000D02*
X133150000Y-85325000D01*
X133150000Y-85325000D02*
X133150000Y-87800000D01*
X133150000Y-87800000D02*
X129850000Y-87800000D01*
X133150000Y-88700000D02*
X129850000Y-88700000D01*
X133150000Y-92000000D02*
X133150000Y-88700000D01*
X134200000Y-83250000D02*
X86800000Y-83250000D01*
X134200000Y-92850000D02*
X134200000Y-83250000D01*
%TO.C,diode 50v 3A*%
X137000000Y-63000000D02*
X137000000Y-58050000D01*
X135450000Y-58050000D02*
X138550000Y-58050000D01*
X138550000Y-58050000D02*
X138550000Y-52950000D01*
X135450000Y-52950000D02*
X135450000Y-58050000D01*
X138550000Y-52950000D02*
X135450000Y-52950000D01*
X137000000Y-48000000D02*
X137000000Y-52950000D01*
X141450000Y-52950000D02*
X141450000Y-58050000D01*
X141450000Y-58050000D02*
X144550000Y-58050000D01*
X143000000Y-48000000D02*
X143000000Y-52950000D01*
X143000000Y-63000000D02*
X143000000Y-58050000D01*
X144550000Y-52950000D02*
X141450000Y-52950000D01*
X144550000Y-58050000D02*
X144550000Y-52950000D01*
%TO.C,atx psu*%
X128000000Y-57100000D02*
X128000000Y-47500000D01*
X128000000Y-47500000D02*
X84800000Y-47500000D01*
X126950000Y-56250000D02*
X126950000Y-52950000D01*
X126950000Y-52950000D02*
X123650000Y-52950000D01*
X126950000Y-52050000D02*
X123650000Y-52050000D01*
X126950000Y-49575000D02*
X126950000Y-52050000D01*
X126125000Y-48750000D02*
X126950000Y-49575000D01*
X124475000Y-48750000D02*
X126125000Y-48750000D01*
X123650000Y-56250000D02*
X126950000Y-56250000D01*
X123650000Y-52950000D02*
X123650000Y-56250000D01*
X123650000Y-52050000D02*
X123650000Y-49575000D01*
X123650000Y-49575000D02*
X124475000Y-48750000D01*
X122750000Y-56250000D02*
X119450000Y-56250000D01*
X122750000Y-53775000D02*
X122750000Y-56250000D01*
X122750000Y-52050000D02*
X122750000Y-48750000D01*
X122750000Y-48750000D02*
X119450000Y-48750000D01*
X121925000Y-52950000D02*
X122750000Y-53775000D01*
X120275000Y-52950000D02*
X121925000Y-52950000D01*
X119450000Y-56250000D02*
X119450000Y-53775000D01*
X119450000Y-53775000D02*
X120275000Y-52950000D01*
X119450000Y-52050000D02*
X122750000Y-52050000D01*
X119450000Y-48750000D02*
X119450000Y-52050000D01*
X118550000Y-56250000D02*
X115250000Y-56250000D01*
X118550000Y-53775000D02*
X118550000Y-56250000D01*
X118550000Y-52050000D02*
X118550000Y-48750000D01*
X118550000Y-48750000D02*
X115250000Y-48750000D01*
X117725000Y-52950000D02*
X118550000Y-53775000D01*
X116075000Y-52950000D02*
X117725000Y-52950000D01*
X115250000Y-56250000D02*
X115250000Y-53775000D01*
X115250000Y-53775000D02*
X116075000Y-52950000D01*
X115250000Y-52050000D02*
X118550000Y-52050000D01*
X115250000Y-48750000D02*
X115250000Y-52050000D01*
X114350000Y-56250000D02*
X114350000Y-52950000D01*
X114350000Y-52950000D02*
X111050000Y-52950000D01*
X114350000Y-52050000D02*
X111050000Y-52050000D01*
X114350000Y-49575000D02*
X114350000Y-52050000D01*
X113525000Y-48750000D02*
X114350000Y-49575000D01*
X111875000Y-48750000D02*
X113525000Y-48750000D01*
X111050000Y-56250000D02*
X114350000Y-56250000D01*
X111050000Y-52950000D02*
X111050000Y-56250000D01*
X111050000Y-52050000D02*
X111050000Y-49575000D01*
X111050000Y-49575000D02*
X111875000Y-48750000D01*
X110150000Y-56250000D02*
X110150000Y-52950000D01*
X110150000Y-52950000D02*
X106850000Y-52950000D01*
X110150000Y-52050000D02*
X106850000Y-52050000D01*
X110150000Y-49575000D02*
X110150000Y-52050000D01*
X109325000Y-48750000D02*
X110150000Y-49575000D01*
X108100000Y-58500000D02*
X108100000Y-57100000D01*
X107675000Y-48750000D02*
X109325000Y-48750000D01*
X106850000Y-56250000D02*
X110150000Y-56250000D01*
X106850000Y-52950000D02*
X106850000Y-56250000D01*
X106850000Y-52050000D02*
X106850000Y-49575000D01*
X106850000Y-49575000D02*
X107675000Y-48750000D01*
X105950000Y-56250000D02*
X102650000Y-56250000D01*
X105950000Y-53775000D02*
X105950000Y-56250000D01*
X105950000Y-52050000D02*
X105950000Y-48750000D01*
X105950000Y-48750000D02*
X102650000Y-48750000D01*
X105125000Y-52950000D02*
X105950000Y-53775000D01*
X104700000Y-58500000D02*
X108100000Y-58500000D01*
X104700000Y-57100000D02*
X104700000Y-58500000D01*
X103475000Y-52950000D02*
X105125000Y-52950000D01*
X102650000Y-56250000D02*
X102650000Y-53775000D01*
X102650000Y-53775000D02*
X103475000Y-52950000D01*
X102650000Y-52050000D02*
X105950000Y-52050000D01*
X102650000Y-48750000D02*
X102650000Y-52050000D01*
X101750000Y-56250000D02*
X98450000Y-56250000D01*
X101750000Y-53775000D02*
X101750000Y-56250000D01*
X101750000Y-52050000D02*
X101750000Y-48750000D01*
X101750000Y-48750000D02*
X98450000Y-48750000D01*
X100925000Y-52950000D02*
X101750000Y-53775000D01*
X99275000Y-52950000D02*
X100925000Y-52950000D01*
X98450000Y-56250000D02*
X98450000Y-53775000D01*
X98450000Y-53775000D02*
X99275000Y-52950000D01*
X98450000Y-52050000D02*
X101750000Y-52050000D01*
X98450000Y-48750000D02*
X98450000Y-52050000D01*
X97550000Y-56250000D02*
X97550000Y-52950000D01*
X97550000Y-52950000D02*
X94250000Y-52950000D01*
X97550000Y-52050000D02*
X94250000Y-52050000D01*
X97550000Y-49575000D02*
X97550000Y-52050000D01*
X96725000Y-48750000D02*
X97550000Y-49575000D01*
X95075000Y-48750000D02*
X96725000Y-48750000D01*
X94250000Y-56250000D02*
X97550000Y-56250000D01*
X94250000Y-52950000D02*
X94250000Y-56250000D01*
X94250000Y-52050000D02*
X94250000Y-49575000D01*
X94250000Y-49575000D02*
X95075000Y-48750000D01*
X93350000Y-56250000D02*
X93350000Y-52950000D01*
X93350000Y-52950000D02*
X90050000Y-52950000D01*
X93350000Y-52050000D02*
X90050000Y-52050000D01*
X93350000Y-49575000D02*
X93350000Y-52050000D01*
X92525000Y-48750000D02*
X93350000Y-49575000D01*
X90875000Y-48750000D02*
X92525000Y-48750000D01*
X90050000Y-56250000D02*
X93350000Y-56250000D01*
X90050000Y-52950000D02*
X90050000Y-56250000D01*
X90050000Y-52050000D02*
X90050000Y-49575000D01*
X90050000Y-49575000D02*
X90875000Y-48750000D01*
X89150000Y-56250000D02*
X85850000Y-56250000D01*
X89150000Y-53775000D02*
X89150000Y-56250000D01*
X89150000Y-52050000D02*
X89150000Y-48750000D01*
X89150000Y-48750000D02*
X85850000Y-48750000D01*
X88325000Y-52950000D02*
X89150000Y-53775000D01*
X87300000Y-47150000D02*
X84450000Y-47150000D01*
X86675000Y-52950000D02*
X88325000Y-52950000D01*
X85850000Y-56250000D02*
X85850000Y-53775000D01*
X85850000Y-53775000D02*
X86675000Y-52950000D01*
X85850000Y-52050000D02*
X89150000Y-52050000D01*
X85850000Y-48750000D02*
X85850000Y-52050000D01*
X84800000Y-57100000D02*
X128000000Y-57100000D01*
X84800000Y-47500000D02*
X84800000Y-57100000D01*
X84450000Y-47150000D02*
X84450000Y-50000000D01*
%TD*%
M02*
